{
	"patcher" : 	{
		"fileversion" : 1,
		"appversion" : 		{
			"major" : 7,
			"minor" : 3,
			"revision" : 1,
			"architecture" : "x86",
			"modernui" : 1
		}
,
		"rect" : [ 159.0, 79.0, 1902.0, 1327.0 ],
		"bglocked" : 0,
		"openinpresentation" : 0,
		"default_fontsize" : 12.0,
		"default_fontface" : 0,
		"default_fontname" : "Arial",
		"gridonopen" : 1,
		"gridsize" : [ 15.0, 15.0 ],
		"gridsnaponopen" : 1,
		"objectsnaponopen" : 1,
		"statusbarvisible" : 2,
		"toolbarvisible" : 1,
		"lefttoolbarpinned" : 0,
		"toptoolbarpinned" : 0,
		"righttoolbarpinned" : 0,
		"bottomtoolbarpinned" : 0,
		"toolbars_unpinned_last_save" : 0,
		"tallnewobj" : 0,
		"boxanimatetime" : 200,
		"enablehscroll" : 1,
		"enablevscroll" : 1,
		"devicewidth" : 0.0,
		"description" : "",
		"digest" : "",
		"tags" : "",
		"style" : "",
		"subpatcher_template" : "",
		"boxes" : [ 			{
				"box" : 				{
					"id" : "obj-99",
					"maxclass" : "toggle",
					"numinlets" : 1,
					"numoutlets" : 1,
					"outlettype" : [ "int" ],
					"parameter_enable" : 0,
					"patching_rect" : [ 1389.0, 666.0, 24.0, 24.0 ],
					"style" : ""
				}

			}
, 			{
				"box" : 				{
					"id" : "obj-96",
					"maxclass" : "newobj",
					"numinlets" : 1,
					"numoutlets" : 1,
					"outlettype" : [ "speakers" ],
					"patching_rect" : [ 284.0, 541.0, 31.0, 22.0 ],
					"presentation_rect" : [ 284.0, 577.0, 0.0, 0.0 ],
					"style" : "",
					"text" : "thru"
				}

			}
, 			{
				"box" : 				{
					"id" : "obj-95",
					"maxclass" : "newobj",
					"numinlets" : 1,
					"numoutlets" : 1,
					"outlettype" : [ "speakers" ],
					"patching_rect" : [ 990.0, 541.0, 31.0, 22.0 ],
					"presentation_rect" : [ 1006.0, 612.0, 0.0, 0.0 ],
					"style" : "",
					"text" : "thru"
				}

			}
, 			{
				"box" : 				{
					"id" : "obj-94",
					"maxclass" : "newobj",
					"numinlets" : 1,
					"numoutlets" : 1,
					"outlettype" : [ "" ],
					"patching_rect" : [ 286.0, 328.0, 31.0, 22.0 ],
					"style" : "",
					"text" : "thru"
				}

			}
, 			{
				"box" : 				{
					"id" : "obj-90",
					"maxclass" : "newobj",
					"numinlets" : 6,
					"numoutlets" : 1,
					"outlettype" : [ "" ],
					"patching_rect" : [ 510.0, 179.5, 110.0, 22.0 ],
					"presentation_rect" : [ 679.0, 185.5, 0.0, 0.0 ],
					"style" : "",
					"text" : "scale -5. 5. -50. 50"
				}

			}
, 			{
				"box" : 				{
					"id" : "obj-91",
					"maxclass" : "newobj",
					"numinlets" : 2,
					"numoutlets" : 1,
					"outlettype" : [ "float" ],
					"patching_rect" : [ 510.0, 148.5, 83.0, 22.0 ],
					"presentation_rect" : [ 679.0, 154.5, 0.0, 0.0 ],
					"style" : "",
					"text" : "snapshot~ 50"
				}

			}
, 			{
				"box" : 				{
					"bgmode" : 0,
					"border" : 0,
					"clickthrough" : 0,
					"enablehscroll" : 0,
					"enablevscroll" : 0,
					"extract" : 1,
					"id" : "obj-93",
					"lockeddragscroll" : 0,
					"maxclass" : "bpatcher",
					"name" : "bp.CV LFO.maxpat",
					"numinlets" : 2,
					"numoutlets" : 2,
					"offset" : [ 0.0, 0.0 ],
					"outlettype" : [ "signal", "signal" ],
					"patching_rect" : [ 510.0, 11.5, 214.0, 116.0 ],
					"presentation_rect" : [ 679.0, 17.5, 0.0, 0.0 ],
					"varname" : "bp.CV LFO[4]",
					"viewvisibility" : 1
				}

			}
, 			{
				"box" : 				{
					"id" : "obj-86",
					"maxclass" : "newobj",
					"numinlets" : 6,
					"numoutlets" : 1,
					"outlettype" : [ "" ],
					"patching_rect" : [ 286.0, 179.5, 110.0, 22.0 ],
					"style" : "",
					"text" : "scale -5. 5. -50. 50"
				}

			}
, 			{
				"box" : 				{
					"id" : "obj-87",
					"maxclass" : "newobj",
					"numinlets" : 2,
					"numoutlets" : 1,
					"outlettype" : [ "float" ],
					"patching_rect" : [ 286.0, 148.5, 83.0, 22.0 ],
					"presentation_rect" : [ 672.0, 165.0, 0.0, 0.0 ],
					"style" : "",
					"text" : "snapshot~ 50"
				}

			}
, 			{
				"box" : 				{
					"bgmode" : 0,
					"border" : 0,
					"clickthrough" : 0,
					"enablehscroll" : 0,
					"enablevscroll" : 0,
					"extract" : 1,
					"id" : "obj-88",
					"lockeddragscroll" : 0,
					"maxclass" : "bpatcher",
					"name" : "bp.CV LFO.maxpat",
					"numinlets" : 2,
					"numoutlets" : 2,
					"offset" : [ 0.0, 0.0 ],
					"outlettype" : [ "signal", "signal" ],
					"patching_rect" : [ 286.0, 11.5, 214.0, 116.0 ],
					"presentation_rect" : [ 672.0, 24.0, 0.0, 0.0 ],
					"varname" : "bp.CV LFO[3]",
					"viewvisibility" : 1
				}

			}
, 			{
				"box" : 				{
					"id" : "obj-85",
					"maxclass" : "live.dial",
					"numinlets" : 1,
					"numoutlets" : 2,
					"outlettype" : [ "", "float" ],
					"parameter_enable" : 1,
					"patching_rect" : [ 2101.0, 434.0, 44.0, 47.0 ],
					"saved_attribute_attributes" : 					{
						"valueof" : 						{
							"parameter_longname" : "live.dial[3]",
							"parameter_shortname" : "live.dial[3]",
							"parameter_type" : 0,
							"parameter_mmax" : 1.0,
							"parameter_unitstyle" : 0
						}

					}
,
					"varname" : "live.dial"
				}

			}
, 			{
				"box" : 				{
					"id" : "obj-71",
					"maxclass" : "newobj",
					"numinlets" : 1,
					"numoutlets" : 0,
					"patching_rect" : [ 2101.0, 485.0, 39.0, 22.0 ],
					"style" : "",
					"text" : "s pos"
				}

			}
, 			{
				"box" : 				{
					"fontname" : "Arial",
					"fontsize" : 11.0,
					"format" : 6,
					"id" : "obj-69",
					"maxclass" : "flonum",
					"numinlets" : 1,
					"numoutlets" : 2,
					"outlettype" : [ "", "bang" ],
					"parameter_enable" : 0,
					"patching_rect" : [ 1667.5, 179.0, 50.0, 21.0 ],
					"presentation_rect" : [ 1667.5, 178.0, 0.0, 0.0 ],
					"style" : ""
				}

			}
, 			{
				"box" : 				{
					"id" : "obj-70",
					"maxclass" : "message",
					"numinlets" : 2,
					"numoutlets" : 1,
					"outlettype" : [ "" ],
					"patching_rect" : [ 1667.5, 213.5, 95.0, 22.0 ],
					"presentation_rect" : [ 1667.5, 212.5, 0.0, 0.0 ],
					"style" : "",
					"text" : "source 2 dist $1"
				}

			}
, 			{
				"box" : 				{
					"fontname" : "Arial",
					"fontsize" : 11.0,
					"format" : 6,
					"id" : "obj-67",
					"maxclass" : "flonum",
					"numinlets" : 1,
					"numoutlets" : 2,
					"outlettype" : [ "", "bang" ],
					"parameter_enable" : 0,
					"patching_rect" : [ 1402.5, 179.0, 50.0, 21.0 ],
					"presentation_rect" : [ 1404.0, 179.0, 0.0, 0.0 ],
					"style" : ""
				}

			}
, 			{
				"box" : 				{
					"id" : "obj-68",
					"maxclass" : "message",
					"numinlets" : 2,
					"numoutlets" : 1,
					"outlettype" : [ "" ],
					"patching_rect" : [ 1402.5, 213.5, 95.0, 22.0 ],
					"presentation_rect" : [ 1404.0, 213.5, 0.0, 0.0 ],
					"style" : "",
					"text" : "source 2 dist $1"
				}

			}
, 			{
				"box" : 				{
					"id" : "obj-60",
					"maxclass" : "newobj",
					"numinlets" : 6,
					"numoutlets" : 1,
					"outlettype" : [ "" ],
					"patching_rect" : [ 1529.0, 179.0, 106.0, 22.0 ],
					"presentation_rect" : [ 1529.0, 182.0, 0.0, 0.0 ],
					"style" : "",
					"text" : "scale -5. 5. 0. 360"
				}

			}
, 			{
				"box" : 				{
					"id" : "obj-61",
					"maxclass" : "newobj",
					"numinlets" : 2,
					"numoutlets" : 1,
					"outlettype" : [ "float" ],
					"patching_rect" : [ 1529.0, 148.0, 83.0, 22.0 ],
					"presentation_rect" : [ 1529.0, 151.0, 0.0, 0.0 ],
					"style" : "",
					"text" : "snapshot~ 50"
				}

			}
, 			{
				"box" : 				{
					"bgmode" : 0,
					"border" : 0,
					"clickthrough" : 0,
					"enablehscroll" : 0,
					"enablevscroll" : 0,
					"extract" : 1,
					"id" : "obj-62",
					"lockeddragscroll" : 0,
					"maxclass" : "bpatcher",
					"name" : "bp.CV LFO.maxpat",
					"numinlets" : 2,
					"numoutlets" : 2,
					"offset" : [ 0.0, 0.0 ],
					"outlettype" : [ "signal", "signal" ],
					"patching_rect" : [ 1529.0, 7.0, 214.0, 116.0 ],
					"presentation_rect" : [ 1529.0, 10.0, 0.0, 0.0 ],
					"varname" : "bp.CV LFO[2]",
					"viewvisibility" : 1
				}

			}
, 			{
				"box" : 				{
					"id" : "obj-63",
					"maxclass" : "message",
					"numinlets" : 2,
					"numoutlets" : 1,
					"outlettype" : [ "" ],
					"patching_rect" : [ 1529.0, 213.5, 102.0, 22.0 ],
					"presentation_rect" : [ 1529.0, 216.5, 0.0, 0.0 ],
					"style" : "",
					"text" : "source 3 azim $1"
				}

			}
, 			{
				"box" : 				{
					"id" : "obj-57",
					"maxclass" : "newobj",
					"numinlets" : 6,
					"numoutlets" : 1,
					"outlettype" : [ "" ],
					"patching_rect" : [ 1278.0, 179.0, 106.0, 22.0 ],
					"presentation_rect" : [ 1277.0, 181.0, 0.0, 0.0 ],
					"style" : "",
					"text" : "scale -5. 5. 0. 360"
				}

			}
, 			{
				"box" : 				{
					"id" : "obj-58",
					"maxclass" : "newobj",
					"numinlets" : 2,
					"numoutlets" : 1,
					"outlettype" : [ "float" ],
					"patching_rect" : [ 1278.0, 148.0, 83.0, 22.0 ],
					"presentation_rect" : [ 1277.0, 150.0, 0.0, 0.0 ],
					"style" : "",
					"text" : "snapshot~ 50"
				}

			}
, 			{
				"box" : 				{
					"bgmode" : 0,
					"border" : 0,
					"clickthrough" : 0,
					"enablehscroll" : 0,
					"enablevscroll" : 0,
					"extract" : 1,
					"id" : "obj-59",
					"lockeddragscroll" : 0,
					"maxclass" : "bpatcher",
					"name" : "bp.CV LFO.maxpat",
					"numinlets" : 2,
					"numoutlets" : 2,
					"offset" : [ 0.0, 0.0 ],
					"outlettype" : [ "signal", "signal" ],
					"patching_rect" : [ 1278.0, 7.0, 214.0, 116.0 ],
					"presentation_rect" : [ 1277.0, 9.0, 0.0, 0.0 ],
					"varname" : "bp.CV LFO[1]",
					"viewvisibility" : 1
				}

			}
, 			{
				"box" : 				{
					"id" : "obj-53",
					"maxclass" : "newobj",
					"numinlets" : 6,
					"numoutlets" : 1,
					"outlettype" : [ "" ],
					"patching_rect" : [ 993.0, 179.0, 106.0, 22.0 ],
					"style" : "",
					"text" : "scale -5. 5. 0. 360"
				}

			}
, 			{
				"box" : 				{
					"id" : "obj-49",
					"maxclass" : "newobj",
					"numinlets" : 2,
					"numoutlets" : 1,
					"outlettype" : [ "float" ],
					"patching_rect" : [ 993.0, 148.0, 83.0, 22.0 ],
					"style" : "",
					"text" : "snapshot~ 50"
				}

			}
, 			{
				"box" : 				{
					"bgmode" : 0,
					"border" : 0,
					"clickthrough" : 0,
					"enablehscroll" : 0,
					"enablevscroll" : 0,
					"extract" : 1,
					"id" : "obj-48",
					"lockeddragscroll" : 0,
					"maxclass" : "bpatcher",
					"name" : "bp.CV LFO.maxpat",
					"numinlets" : 2,
					"numoutlets" : 2,
					"offset" : [ 0.0, 0.0 ],
					"outlettype" : [ "signal", "signal" ],
					"patching_rect" : [ 993.0, 7.0, 214.0, 116.0 ],
					"varname" : "bp.CV LFO",
					"viewvisibility" : 1
				}

			}
, 			{
				"box" : 				{
					"id" : "obj-34",
					"maxclass" : "newobj",
					"numinlets" : 1,
					"numoutlets" : 1,
					"outlettype" : [ "bang" ],
					"patching_rect" : [ 284.0, 392.0, 60.0, 22.0 ],
					"style" : "",
					"text" : "loadbang"
				}

			}
, 			{
				"box" : 				{
					"id" : "obj-40",
					"maxclass" : "newobj",
					"numinlets" : 1,
					"numoutlets" : 1,
					"outlettype" : [ "" ],
					"patcher" : 					{
						"fileversion" : 1,
						"appversion" : 						{
							"major" : 7,
							"minor" : 3,
							"revision" : 1,
							"architecture" : "x86",
							"modernui" : 1
						}
,
						"rect" : [ 667.0, 213.0, 640.0, 480.0 ],
						"bglocked" : 0,
						"openinpresentation" : 0,
						"default_fontsize" : 12.0,
						"default_fontface" : 0,
						"default_fontname" : "Arial",
						"gridonopen" : 1,
						"gridsize" : [ 15.0, 15.0 ],
						"gridsnaponopen" : 1,
						"objectsnaponopen" : 1,
						"statusbarvisible" : 2,
						"toolbarvisible" : 1,
						"lefttoolbarpinned" : 0,
						"toptoolbarpinned" : 0,
						"righttoolbarpinned" : 0,
						"bottomtoolbarpinned" : 0,
						"toolbars_unpinned_last_save" : 0,
						"tallnewobj" : 0,
						"boxanimatetime" : 200,
						"enablehscroll" : 1,
						"enablevscroll" : 1,
						"devicewidth" : 0.0,
						"description" : "",
						"digest" : "",
						"tags" : "",
						"style" : "",
						"subpatcher_template" : "",
						"boxes" : [ 							{
								"box" : 								{
									"id" : "obj-1",
									"maxclass" : "newobj",
									"numinlets" : 2,
									"numoutlets" : 1,
									"outlettype" : [ "float" ],
									"patching_rect" : [ 199.0, 230.0, 35.0, 22.0 ],
									"style" : "",
									"text" : "- 40."
								}

							}
, 							{
								"box" : 								{
									"id" : "obj-4",
									"maxclass" : "message",
									"numinlets" : 2,
									"numoutlets" : 1,
									"outlettype" : [ "" ],
									"patching_rect" : [ 336.0, 273.0, 124.0, 22.0 ],
									"style" : "",
									"text" : "sources aperture 180"
								}

							}
, 							{
								"box" : 								{
									"comment" : "",
									"id" : "obj-3",
									"maxclass" : "inlet",
									"numinlets" : 0,
									"numoutlets" : 1,
									"outlettype" : [ "bang" ],
									"patching_rect" : [ 84.0, 72.0, 30.0, 30.0 ],
									"style" : ""
								}

							}
, 							{
								"box" : 								{
									"comment" : "",
									"id" : "obj-2",
									"maxclass" : "outlet",
									"numinlets" : 1,
									"numoutlets" : 0,
									"patching_rect" : [ 84.0, 315.0, 30.0, 30.0 ],
									"style" : ""
								}

							}
, 							{
								"box" : 								{
									"id" : "obj-83",
									"maxclass" : "newobj",
									"numinlets" : 2,
									"numoutlets" : 1,
									"outlettype" : [ "float" ],
									"patching_rect" : [ 129.0, 203.0, 29.5, 22.0 ],
									"style" : "",
									"text" : "* 2."
								}

							}
, 							{
								"box" : 								{
									"id" : "obj-82",
									"maxclass" : "newobj",
									"numinlets" : 2,
									"numoutlets" : 1,
									"outlettype" : [ "int" ],
									"patching_rect" : [ 84.0, 219.0, 29.5, 22.0 ],
									"style" : "",
									"text" : "+ 1"
								}

							}
, 							{
								"box" : 								{
									"id" : "obj-81",
									"maxclass" : "newobj",
									"numinlets" : 2,
									"numoutlets" : 1,
									"outlettype" : [ "" ],
									"patching_rect" : [ 84.0, 251.0, 59.0, 22.0 ],
									"style" : "",
									"text" : "pack 0 1."
								}

							}
, 							{
								"box" : 								{
									"id" : "obj-80",
									"maxclass" : "newobj",
									"numinlets" : 5,
									"numoutlets" : 4,
									"outlettype" : [ "int", "", "", "int" ],
									"patching_rect" : [ 84.0, 175.5, 87.0, 22.0 ],
									"style" : "",
									"text" : "counter 0 0 39"
								}

							}
, 							{
								"box" : 								{
									"id" : "obj-64",
									"maxclass" : "button",
									"numinlets" : 1,
									"numoutlets" : 1,
									"outlettype" : [ "bang" ],
									"patching_rect" : [ 84.0, 114.0, 24.0, 24.0 ],
									"style" : ""
								}

							}
, 							{
								"box" : 								{
									"id" : "obj-62",
									"maxclass" : "newobj",
									"numinlets" : 2,
									"numoutlets" : 3,
									"outlettype" : [ "bang", "bang", "int" ],
									"patching_rect" : [ 84.0, 147.0, 43.0, 22.0 ],
									"style" : "",
									"text" : "uzi 40"
								}

							}
, 							{
								"box" : 								{
									"id" : "obj-61",
									"maxclass" : "message",
									"numinlets" : 2,
									"numoutlets" : 1,
									"outlettype" : [ "" ],
									"patching_rect" : [ 84.0, 281.0, 112.0, 22.0 ],
									"style" : "",
									"text" : "speaker $1 xy $2 0"
								}

							}
 ],
						"lines" : [ 							{
								"patchline" : 								{
									"destination" : [ "obj-81", 1 ],
									"disabled" : 0,
									"hidden" : 0,
									"source" : [ "obj-1", 0 ]
								}

							}
, 							{
								"patchline" : 								{
									"destination" : [ "obj-64", 0 ],
									"disabled" : 0,
									"hidden" : 0,
									"source" : [ "obj-3", 0 ]
								}

							}
, 							{
								"patchline" : 								{
									"destination" : [ "obj-2", 0 ],
									"disabled" : 0,
									"hidden" : 0,
									"source" : [ "obj-4", 0 ]
								}

							}
, 							{
								"patchline" : 								{
									"destination" : [ "obj-2", 0 ],
									"disabled" : 0,
									"hidden" : 0,
									"source" : [ "obj-61", 0 ]
								}

							}
, 							{
								"patchline" : 								{
									"destination" : [ "obj-80", 0 ],
									"disabled" : 0,
									"hidden" : 0,
									"source" : [ "obj-62", 0 ]
								}

							}
, 							{
								"patchline" : 								{
									"destination" : [ "obj-4", 0 ],
									"disabled" : 0,
									"hidden" : 0,
									"source" : [ "obj-64", 0 ]
								}

							}
, 							{
								"patchline" : 								{
									"destination" : [ "obj-62", 0 ],
									"disabled" : 0,
									"hidden" : 0,
									"source" : [ "obj-64", 0 ]
								}

							}
, 							{
								"patchline" : 								{
									"destination" : [ "obj-82", 0 ],
									"disabled" : 0,
									"hidden" : 0,
									"source" : [ "obj-80", 0 ]
								}

							}
, 							{
								"patchline" : 								{
									"destination" : [ "obj-83", 0 ],
									"disabled" : 0,
									"hidden" : 0,
									"source" : [ "obj-80", 0 ]
								}

							}
, 							{
								"patchline" : 								{
									"destination" : [ "obj-61", 0 ],
									"disabled" : 0,
									"hidden" : 0,
									"source" : [ "obj-81", 0 ]
								}

							}
, 							{
								"patchline" : 								{
									"destination" : [ "obj-81", 0 ],
									"disabled" : 0,
									"hidden" : 0,
									"source" : [ "obj-82", 0 ]
								}

							}
, 							{
								"patchline" : 								{
									"destination" : [ "obj-1", 0 ],
									"disabled" : 0,
									"hidden" : 0,
									"source" : [ "obj-83", 0 ]
								}

							}
 ]
					}
,
					"patching_rect" : [ 284.0, 420.0, 133.0, 22.0 ],
					"saved_object_attributes" : 					{
						"description" : "",
						"digest" : "",
						"globalpatchername" : "",
						"style" : "",
						"tags" : ""
					}
,
					"style" : "",
					"text" : "p placeSpeakersLinear"
				}

			}
, 			{
				"box" : 				{
					"id" : "obj-33",
					"maxclass" : "newobj",
					"numinlets" : 4,
					"numoutlets" : 1,
					"outlettype" : [ "signal" ],
					"patching_rect" : [ 1288.0, 781.5, 118.0, 22.0 ],
					"style" : "",
					"text" : "spat.NNDistFilter~ 3"
				}

			}
, 			{
				"box" : 				{
					"fontname" : "Arial",
					"fontsize" : 11.0,
					"hidden" : 1,
					"id" : "obj-13",
					"maxclass" : "message",
					"numinlets" : 2,
					"numoutlets" : 1,
					"outlettype" : [ "" ],
					"patching_rect" : [ 1108.0, 649.5, 57.0, 21.0 ],
					"style" : "",
					"text" : "wclose 0"
				}

			}
, 			{
				"box" : 				{
					"fontname" : "Arial",
					"fontsize" : 11.0,
					"hidden" : 1,
					"id" : "obj-2",
					"maxclass" : "newobj",
					"numinlets" : 1,
					"numoutlets" : 1,
					"outlettype" : [ "bang" ],
					"patching_rect" : [ 1108.0, 616.5, 65.0, 21.0 ],
					"style" : "",
					"text" : "closebang"
				}

			}
, 			{
				"box" : 				{
					"args" : [ 3 ],
					"bgmode" : 0,
					"border" : 1,
					"clickthrough" : 0,
					"enablehscroll" : 0,
					"enablevscroll" : 0,
					"id" : "obj-9",
					"lockeddragscroll" : 0,
					"maxclass" : "bpatcher",
					"name" : "spat.multiinputs~.maxpat",
					"numinlets" : 1,
					"numoutlets" : 3,
					"offset" : [ 0.0, 0.0 ],
					"outlettype" : [ "signal", "signal", "signal" ],
					"patching_rect" : [ 1108.0, 681.5, 199.0, 51.0 ],
					"viewvisibility" : 1
				}

			}
, 			{
				"box" : 				{
					"autosave" : 1,
					"bgmode" : 1,
					"border" : 0,
					"clickthrough" : 0,
					"enablehscroll" : 0,
					"enablevscroll" : 0,
					"id" : "obj-28",
					"lockeddragscroll" : 0,
					"maxclass" : "newobj",
					"numinlets" : 3,
					"numoutlets" : 4,
					"offset" : [ 0.0, 0.0 ],
					"outlettype" : [ "signal", "signal", "", "" ],
					"patching_rect" : [ 2101.0, 511.5, 777.0, 196.0 ],
					"presentation_rect" : [ 0.0, 0.0, 777.0, 196.0 ],
					"saved_attribute_attributes" : 					{
						"valueof" : 						{
							"parameter_invisible" : 1,
							"parameter_longname" : "amxd~[1]",
							"parameter_shortname" : "amxd~[1]",
							"parameter_type" : 3
						}

					}
,
					"saved_object_attributes" : 					{
						"annotation_name" : "",
						"parameter_enable" : 1,
						"patchername" : "Granulator.amxd",
						"patchername_fallback" : "~/Desktop/WaveAudio/Granulator.amxd"
					}
,
					"snapshot" : 					{
						"filetype" : "C74Snapshot",
						"version" : 2,
						"minorversion" : 0,
						"name" : "snapshotlist",
						"origin" : "max~",
						"type" : "list",
						"subtype" : "Undefined",
						"embed" : 1,
						"snapshot" : 						{
							"name" : "Granulator.amxd",
							"origname" : "~/Desktop/WaveAudio/Granulator.amxd",
							"valuedictionary" : 							{
								"parameter_values" : 								{
									"AEnvAmount" : 0.0,
									"AFilterOn" : 0.0,
									"AFilterType" : 0.0,
									"AFreq<Key" : 0.0,
									"AFreq<Vel" : 0.0,
									"AFrequency" : 20.0,
									"AGain" : 0.0,
									"AMOn" : 0.0,
									"AResonance" : 0.1,
									"AmpVoidResidual" : 0.0,
									"BEnvAmount" : 0.0,
									"BFilterOn" : 0.0,
									"BFilterType" : 0.0,
									"BFreq<Key" : 0.0,
									"BFreq<Vel" : 0.0,
									"BFrequency" : 20.0,
									"BGain" : 0.0,
									"BResonance" : 0.1,
									"FM<AuxEnv" : 0.0,
									"FM<Key" : 0.0,
									"FM<Vel" : 0.0,
									"FMAmount" : 0.0,
									"FMAmt<Key" : 0.0,
									"FMFreq" : 2.0,
									"FMOn" : 0.0,
									"FilePos" : 9.448819,
									"FilePos<Key" : 0.0,
									"FilePos<Rnd" : 0.0,
									"FilterEnvAttack" : 1.0,
									"FilterEnvDecay" : 30.0,
									"FilterEnvRelease" : 30.0,
									"FilterEnvSustain" : 0.0,
									"FluxusAmount" : 0.0,
									"FluxusMode" : 0.0,
									"Grab" : 0.0,
									"Grain<Key" : 0.0,
									"Grain<LFO" : 0.0,
									"Grain<Random" : 0.0,
									"GrainSize" : 96.93898,
									"GrainSpread" : 0.0,
									"Hold" : 0.0,
									"LFOSlow" : 0.0,
									"Pos<LFO" : 0.0,
									"PosLFO<Key" : 0.0,
									"PosLFOCycle" : 50.0,
									"PosLFOOn" : 0.0,
									"PosLFOPhase" : 0.0,
									"PosLFOTrigger" : 0.0,
									"PosLFOWave" : 0.0,
									"ScanCurve" : 0.5,
									"ScanDistance" : 0.01,
									"ScanFactor<Key" : 0.0,
									"ScanFactor<Vel" : 0.0,
									"ScanOn" : 0.0,
									"ScanTime" : 25.0,
									"Spray" : 5196.850586,
									"SprayOn" : 1.0,
									"SpraySign" : 0.0,
									"SpraySlope" : 1.0,
									"Tune" : 0.0,
									"Tune<Key" : 0.0,
									"Tune<Rnd" : 0.0,
									"Tune<Vel" : 0.0,
									"TuneFine" : 0.0,
									"View" : 0.0,
									"Vocies" : 0.0,
									"Volume" : 0.0,
									"Volume<Vel" : 0.0,
									"VolumeEnvAttack" : 1.0,
									"VolumeEnvDecay" : 10.0,
									"VolumeEnvRelease" : 10.0,
									"VolumeEnvSustain" : 0.0,
									"WindowShape" : 0.0,
									"WindowSpike" : 0.0,
									"WindowSymmetry" : 0.0,
									"LiveInOn" : 0.0,
									"blob" : 									{
										"VZoom" : [ 0.0 ],
										"dropsample" : [ "macOS:/Users/jonasfehr/Desktop/superShortString.aif" ],
										"zoom_factor" : [ 1.0 ]
									}

								}

							}

						}
,
						"snapshotlist" : 						{
							"current_snapshot" : 0,
							"entries" : [ 								{
									"filetype" : "C74Snapshot",
									"version" : 2,
									"minorversion" : 0,
									"name" : "Granulator.amxd",
									"origin" : "Granulator.amxd",
									"type" : "amxd",
									"subtype" : "Undefined",
									"embed" : 0,
									"snapshot" : 									{
										"name" : "Granulator.amxd",
										"origname" : "~/Desktop/WaveAudio/Granulator.amxd",
										"valuedictionary" : 										{
											"parameter_values" : 											{
												"AEnvAmount" : 0.0,
												"AFilterOn" : 0.0,
												"AFilterType" : 0.0,
												"AFreq<Key" : 0.0,
												"AFreq<Vel" : 0.0,
												"AFrequency" : 20.0,
												"AGain" : 0.0,
												"AMOn" : 0.0,
												"AResonance" : 0.1,
												"AmpVoidResidual" : 0.0,
												"BEnvAmount" : 0.0,
												"BFilterOn" : 0.0,
												"BFilterType" : 0.0,
												"BFreq<Key" : 0.0,
												"BFreq<Vel" : 0.0,
												"BFrequency" : 20.0,
												"BGain" : 0.0,
												"BResonance" : 0.1,
												"FM<AuxEnv" : 0.0,
												"FM<Key" : 0.0,
												"FM<Vel" : 0.0,
												"FMAmount" : 0.0,
												"FMAmt<Key" : 0.0,
												"FMFreq" : 2.0,
												"FMOn" : 0.0,
												"FilePos" : 9.448819,
												"FilePos<Key" : 0.0,
												"FilePos<Rnd" : 0.0,
												"FilterEnvAttack" : 1.0,
												"FilterEnvDecay" : 30.0,
												"FilterEnvRelease" : 30.0,
												"FilterEnvSustain" : 0.0,
												"FluxusAmount" : 0.0,
												"FluxusMode" : 0.0,
												"Grab" : 0.0,
												"Grain<Key" : 0.0,
												"Grain<LFO" : 0.0,
												"Grain<Random" : 0.0,
												"GrainSize" : 96.93898,
												"GrainSpread" : 0.0,
												"Hold" : 0.0,
												"LFOSlow" : 0.0,
												"Pos<LFO" : 0.0,
												"PosLFO<Key" : 0.0,
												"PosLFOCycle" : 50.0,
												"PosLFOOn" : 0.0,
												"PosLFOPhase" : 0.0,
												"PosLFOTrigger" : 0.0,
												"PosLFOWave" : 0.0,
												"ScanCurve" : 0.5,
												"ScanDistance" : 0.01,
												"ScanFactor<Key" : 0.0,
												"ScanFactor<Vel" : 0.0,
												"ScanOn" : 0.0,
												"ScanTime" : 25.0,
												"Spray" : 5196.850586,
												"SprayOn" : 1.0,
												"SpraySign" : 0.0,
												"SpraySlope" : 1.0,
												"Tune" : 0.0,
												"Tune<Key" : 0.0,
												"Tune<Rnd" : 0.0,
												"Tune<Vel" : 0.0,
												"TuneFine" : 0.0,
												"View" : 0.0,
												"Vocies" : 0.0,
												"Volume" : 0.0,
												"Volume<Vel" : 0.0,
												"VolumeEnvAttack" : 1.0,
												"VolumeEnvDecay" : 10.0,
												"VolumeEnvRelease" : 10.0,
												"VolumeEnvSustain" : 0.0,
												"WindowShape" : 0.0,
												"WindowSpike" : 0.0,
												"WindowSymmetry" : 0.0,
												"LiveInOn" : 0.0,
												"blob" : 												{
													"VZoom" : [ 0.0 ],
													"dropsample" : [ "macOS:/Users/jonasfehr/Desktop/superShortString.aif" ],
													"zoom_factor" : [ 1.0 ]
												}

											}

										}

									}
,
									"fileref" : 									{
										"name" : "Granulator.amxd",
										"filename" : "Granulator.amxd.maxsnap",
										"filepath" : "~/Documents/Max 7/Snapshots",
										"filepos" : -1,
										"snapshotfileid" : "aebe10b3ba7b20e9599c4b76bf220d9e"
									}

								}
, 								{
									"filetype" : "C74Snapshot",
									"version" : 2,
									"minorversion" : 0,
									"name" : "Granulator.amxd[1]",
									"origin" : "Granulator.amxd",
									"type" : "amxd",
									"subtype" : "Undefined",
									"embed" : 0,
									"snapshot" : 									{
										"name" : "Granulator.amxd",
										"origname" : "~/Desktop/WaveAudio/Granulator.amxd",
										"valuedictionary" : 										{
											"parameter_values" : 											{
												"AEnvAmount" : 0.0,
												"AFilterOn" : 0.0,
												"AFilterType" : 0.0,
												"AFreq<Key" : 0.0,
												"AFreq<Vel" : 0.0,
												"AFrequency" : 20.0,
												"AGain" : 0.0,
												"AMOn" : 0.0,
												"AResonance" : 0.1,
												"AmpVoidResidual" : 0.0,
												"BEnvAmount" : 0.0,
												"BFilterOn" : 0.0,
												"BFilterType" : 0.0,
												"BFreq<Key" : 0.0,
												"BFreq<Vel" : 0.0,
												"BFrequency" : 20.0,
												"BGain" : 0.0,
												"BResonance" : 0.1,
												"FM<AuxEnv" : 0.0,
												"FM<Key" : 0.0,
												"FM<Vel" : 0.0,
												"FMAmount" : 0.0,
												"FMAmt<Key" : 0.0,
												"FMFreq" : 2.0,
												"FMOn" : 0.0,
												"FilePos" : 43.307087,
												"FilePos<Key" : 0.0,
												"FilePos<Rnd" : 0.0,
												"FilterEnvAttack" : 1.0,
												"FilterEnvDecay" : 30.0,
												"FilterEnvRelease" : 30.0,
												"FilterEnvSustain" : 0.0,
												"FluxusAmount" : 0.0,
												"FluxusMode" : 0.0,
												"Grab" : 0.0,
												"Grain<Key" : 0.0,
												"Grain<LFO" : 0.0,
												"Grain<Random" : 0.0,
												"GrainSize" : 0.25,
												"GrainSpread" : 0.0,
												"Hold" : 0.0,
												"LFOSlow" : 0.0,
												"Pos<LFO" : 0.0,
												"PosLFO<Key" : 0.0,
												"PosLFOCycle" : 50.0,
												"PosLFOOn" : 0.0,
												"PosLFOPhase" : 0.0,
												"PosLFOTrigger" : 0.0,
												"PosLFOWave" : 0.0,
												"ScanCurve" : 0.5,
												"ScanDistance" : 0.01,
												"ScanFactor<Key" : 0.0,
												"ScanFactor<Vel" : 0.0,
												"ScanOn" : 0.0,
												"ScanTime" : 25.0,
												"Spray" : 8976.37793,
												"SprayOn" : 0.0,
												"SpraySign" : 0.0,
												"SpraySlope" : 1.0,
												"Tune" : 0.0,
												"Tune<Key" : 0.0,
												"Tune<Rnd" : 0.0,
												"Tune<Vel" : 0.0,
												"TuneFine" : 0.0,
												"View" : 0.0,
												"Vocies" : 0.0,
												"Volume" : 0.0,
												"Volume<Vel" : 0.0,
												"VolumeEnvAttack" : 1.0,
												"VolumeEnvDecay" : 10.0,
												"VolumeEnvRelease" : 10.0,
												"VolumeEnvSustain" : 0.0,
												"WindowShape" : 0.0,
												"WindowSpike" : 0.0,
												"WindowSymmetry" : 0.0,
												"LiveInOn" : 0.0,
												"blob" : 												{
													"VZoom" : [ 0.0 ],
													"dropsample" : [ "macOS:/Users/jonasfehr/Desktop/superShortString.aif" ],
													"zoom_factor" : [ 1.0 ]
												}

											}

										}

									}
,
									"fileref" : 									{
										"name" : "Granulator.amxd[1]",
										"filename" : "Granulator.amxd[1].maxsnap",
										"filepath" : "~/Documents/Max 7/Snapshots",
										"filepos" : -1,
										"snapshotfileid" : "4298f309ed74306ff4ba5cbce9384e52"
									}

								}
 ]
						}

					}
,
					"style" : "",
					"text" : "amxd~ /Users/jonasfehr/Desktop/WaveAudio/Granulator.amxd",
					"varname" : "amxd~[1]",
					"viewvisibility" : 1
				}

			}
, 			{
				"box" : 				{
					"id" : "obj-160",
					"maxclass" : "newobj",
					"numinlets" : 1,
					"numoutlets" : 0,
					"patching_rect" : [ 1030.0, 541.0, 75.0, 22.0 ],
					"style" : "",
					"text" : "s sourceList"
				}

			}
, 			{
				"box" : 				{
					"id" : "obj-159",
					"maxclass" : "newobj",
					"numinlets" : 1,
					"numoutlets" : 1,
					"outlettype" : [ "" ],
					"patching_rect" : [ 993.0, 319.0, 31.0, 22.0 ],
					"style" : "",
					"text" : "thru"
				}

			}
, 			{
				"box" : 				{
					"id" : "obj-158",
					"maxclass" : "newobj",
					"numinlets" : 4,
					"numoutlets" : 1,
					"outlettype" : [ "signal" ],
					"patching_rect" : [ 1198.0, 750.5, 118.0, 22.0 ],
					"style" : "",
					"text" : "spat.NNDistFilter~ 2"
				}

			}
, 			{
				"box" : 				{
					"id" : "obj-157",
					"maxclass" : "newobj",
					"numinlets" : 4,
					"numoutlets" : 1,
					"outlettype" : [ "signal" ],
					"patching_rect" : [ 1108.0, 781.5, 118.0, 22.0 ],
					"style" : "",
					"text" : "spat.NNDistFilter~ 1"
				}

			}
, 			{
				"box" : 				{
					"id" : "obj-152",
					"maxclass" : "message",
					"numinlets" : 2,
					"numoutlets" : 1,
					"outlettype" : [ "" ],
					"patching_rect" : [ 1278.0, 213.5, 102.0, 22.0 ],
					"style" : "",
					"text" : "source 2 azim $1"
				}

			}
, 			{
				"box" : 				{
					"id" : "obj-97",
					"maxclass" : "message",
					"numinlets" : 2,
					"numoutlets" : 1,
					"outlettype" : [ "" ],
					"patching_rect" : [ 993.0, 213.5, 102.0, 22.0 ],
					"style" : "",
					"text" : "source 1 azim $1"
				}

			}
, 			{
				"box" : 				{
					"fontname" : "Arial",
					"fontsize" : 11.0,
					"id" : "obj-45",
					"maxclass" : "comment",
					"numinlets" : 1,
					"numoutlets" : 0,
					"patching_rect" : [ 897.0, 747.0, 124.0, 19.0 ],
					"style" : "",
					"text" : "Encoding normalization"
				}

			}
, 			{
				"box" : 				{
					"fontname" : "Arial",
					"fontsize" : 11.0,
					"id" : "obj-167",
					"maxclass" : "message",
					"numinlets" : 2,
					"numoutlets" : 1,
					"outlettype" : [ "" ],
					"patching_rect" : [ 902.0, 807.0, 51.0, 21.0 ],
					"style" : "",
					"text" : "norm $1"
				}

			}
, 			{
				"box" : 				{
					"id" : "obj-47",
					"maxclass" : "live.menu",
					"numinlets" : 1,
					"numoutlets" : 3,
					"outlettype" : [ "", "", "float" ],
					"parameter_enable" : 1,
					"patching_rect" : [ 907.0, 767.0, 100.0, 15.0 ],
					"saved_attribute_attributes" : 					{
						"valueof" : 						{
							"parameter_longname" : "live.menu[7]",
							"parameter_shortname" : "live.menu",
							"parameter_type" : 2,
							"parameter_enum" : [ "SN3D", "N3D", "FuMa", "SN2D", "N2D", "Unnormalized", "RONB" ]
						}

					}
,
					"varname" : "live.menu"
				}

			}
, 			{
				"box" : 				{
					"id" : "obj-92",
					"maxclass" : "newobj",
					"numinlets" : 1,
					"numoutlets" : 1,
					"outlettype" : [ "bang" ],
					"patching_rect" : [ 1013.0, 414.0, 60.0, 22.0 ],
					"style" : "",
					"text" : "loadbang"
				}

			}
, 			{
				"box" : 				{
					"id" : "obj-89",
					"maxclass" : "newobj",
					"numinlets" : 1,
					"numoutlets" : 1,
					"outlettype" : [ "" ],
					"patcher" : 					{
						"fileversion" : 1,
						"appversion" : 						{
							"major" : 7,
							"minor" : 3,
							"revision" : 1,
							"architecture" : "x86",
							"modernui" : 1
						}
,
						"rect" : [ 667.0, 213.0, 640.0, 480.0 ],
						"bglocked" : 0,
						"openinpresentation" : 0,
						"default_fontsize" : 12.0,
						"default_fontface" : 0,
						"default_fontname" : "Arial",
						"gridonopen" : 1,
						"gridsize" : [ 15.0, 15.0 ],
						"gridsnaponopen" : 1,
						"objectsnaponopen" : 1,
						"statusbarvisible" : 2,
						"toolbarvisible" : 1,
						"lefttoolbarpinned" : 0,
						"toptoolbarpinned" : 0,
						"righttoolbarpinned" : 0,
						"bottomtoolbarpinned" : 0,
						"toolbars_unpinned_last_save" : 0,
						"tallnewobj" : 0,
						"boxanimatetime" : 200,
						"enablehscroll" : 1,
						"enablevscroll" : 1,
						"devicewidth" : 0.0,
						"description" : "",
						"digest" : "",
						"tags" : "",
						"style" : "",
						"subpatcher_template" : "",
						"visible" : 1,
						"boxes" : [ 							{
								"box" : 								{
									"id" : "obj-6",
									"maxclass" : "newobj",
									"numinlets" : 1,
									"numoutlets" : 0,
									"patching_rect" : [ 165.0, 319.0, 81.0, 22.0 ],
									"style" : "",
									"text" : "s speakerList"
								}

							}
, 							{
								"box" : 								{
									"id" : "obj-5",
									"maxclass" : "newobj",
									"numinlets" : 1,
									"numoutlets" : 0,
									"patching_rect" : [ 255.0, 140.0, 107.0, 22.0 ],
									"style" : "",
									"text" : "s updateSpeakers"
								}

							}
, 							{
								"box" : 								{
									"id" : "obj-4",
									"maxclass" : "message",
									"numinlets" : 2,
									"numoutlets" : 1,
									"outlettype" : [ "" ],
									"patching_rect" : [ 336.0, 273.0, 124.0, 22.0 ],
									"style" : "",
									"text" : "sources aperture 180"
								}

							}
, 							{
								"box" : 								{
									"comment" : "",
									"id" : "obj-3",
									"maxclass" : "inlet",
									"numinlets" : 0,
									"numoutlets" : 1,
									"outlettype" : [ "bang" ],
									"patching_rect" : [ 84.0, 72.0, 30.0, 30.0 ],
									"style" : ""
								}

							}
, 							{
								"box" : 								{
									"comment" : "",
									"id" : "obj-2",
									"maxclass" : "outlet",
									"numinlets" : 1,
									"numoutlets" : 0,
									"patching_rect" : [ 84.0, 315.0, 30.0, 30.0 ],
									"style" : ""
								}

							}
, 							{
								"box" : 								{
									"id" : "obj-83",
									"maxclass" : "newobj",
									"numinlets" : 2,
									"numoutlets" : 1,
									"outlettype" : [ "float" ],
									"patching_rect" : [ 128.0, 219.0, 29.5, 22.0 ],
									"style" : "",
									"text" : "* 9."
								}

							}
, 							{
								"box" : 								{
									"id" : "obj-82",
									"maxclass" : "newobj",
									"numinlets" : 2,
									"numoutlets" : 1,
									"outlettype" : [ "int" ],
									"patching_rect" : [ 84.0, 219.0, 29.5, 22.0 ],
									"style" : "",
									"text" : "+ 1"
								}

							}
, 							{
								"box" : 								{
									"id" : "obj-81",
									"maxclass" : "newobj",
									"numinlets" : 2,
									"numoutlets" : 1,
									"outlettype" : [ "" ],
									"patching_rect" : [ 84.0, 251.0, 59.0, 22.0 ],
									"style" : "",
									"text" : "pack 1 1."
								}

							}
, 							{
								"box" : 								{
									"id" : "obj-80",
									"maxclass" : "newobj",
									"numinlets" : 5,
									"numoutlets" : 4,
									"outlettype" : [ "int", "", "", "int" ],
									"patching_rect" : [ 84.0, 175.5, 87.0, 22.0 ],
									"style" : "",
									"text" : "counter 0 0 39"
								}

							}
, 							{
								"box" : 								{
									"id" : "obj-64",
									"maxclass" : "button",
									"numinlets" : 1,
									"numoutlets" : 1,
									"outlettype" : [ "bang" ],
									"patching_rect" : [ 84.0, 114.0, 24.0, 24.0 ],
									"style" : ""
								}

							}
, 							{
								"box" : 								{
									"id" : "obj-62",
									"maxclass" : "newobj",
									"numinlets" : 2,
									"numoutlets" : 3,
									"outlettype" : [ "bang", "bang", "int" ],
									"patching_rect" : [ 84.0, 147.0, 43.0, 22.0 ],
									"style" : "",
									"text" : "uzi 40"
								}

							}
, 							{
								"box" : 								{
									"id" : "obj-61",
									"maxclass" : "message",
									"numinlets" : 2,
									"numoutlets" : 1,
									"outlettype" : [ "" ],
									"patching_rect" : [ 84.0, 281.0, 143.0, 22.0 ],
									"style" : "",
									"text" : "speaker $1 ad $2 12.732"
								}

							}
 ],
						"lines" : [ 							{
								"patchline" : 								{
									"destination" : [ "obj-64", 0 ],
									"disabled" : 0,
									"hidden" : 0,
									"source" : [ "obj-3", 0 ]
								}

							}
, 							{
								"patchline" : 								{
									"destination" : [ "obj-2", 0 ],
									"disabled" : 0,
									"hidden" : 0,
									"source" : [ "obj-4", 0 ]
								}

							}
, 							{
								"patchline" : 								{
									"destination" : [ "obj-2", 0 ],
									"disabled" : 0,
									"hidden" : 0,
									"source" : [ "obj-61", 0 ]
								}

							}
, 							{
								"patchline" : 								{
									"destination" : [ "obj-6", 0 ],
									"disabled" : 0,
									"hidden" : 0,
									"source" : [ "obj-61", 0 ]
								}

							}
, 							{
								"patchline" : 								{
									"destination" : [ "obj-80", 0 ],
									"disabled" : 0,
									"hidden" : 0,
									"source" : [ "obj-62", 0 ]
								}

							}
, 							{
								"patchline" : 								{
									"destination" : [ "obj-4", 0 ],
									"disabled" : 0,
									"hidden" : 0,
									"source" : [ "obj-64", 0 ]
								}

							}
, 							{
								"patchline" : 								{
									"destination" : [ "obj-5", 0 ],
									"disabled" : 0,
									"hidden" : 0,
									"source" : [ "obj-64", 0 ]
								}

							}
, 							{
								"patchline" : 								{
									"destination" : [ "obj-62", 0 ],
									"disabled" : 0,
									"hidden" : 0,
									"source" : [ "obj-64", 0 ]
								}

							}
, 							{
								"patchline" : 								{
									"destination" : [ "obj-82", 0 ],
									"disabled" : 0,
									"hidden" : 0,
									"source" : [ "obj-80", 0 ]
								}

							}
, 							{
								"patchline" : 								{
									"destination" : [ "obj-83", 0 ],
									"disabled" : 0,
									"hidden" : 0,
									"source" : [ "obj-80", 0 ]
								}

							}
, 							{
								"patchline" : 								{
									"destination" : [ "obj-61", 0 ],
									"disabled" : 0,
									"hidden" : 0,
									"source" : [ "obj-81", 0 ]
								}

							}
, 							{
								"patchline" : 								{
									"destination" : [ "obj-81", 0 ],
									"disabled" : 0,
									"hidden" : 0,
									"source" : [ "obj-82", 0 ]
								}

							}
, 							{
								"patchline" : 								{
									"destination" : [ "obj-81", 1 ],
									"disabled" : 0,
									"hidden" : 0,
									"source" : [ "obj-83", 0 ]
								}

							}
 ]
					}
,
					"patching_rect" : [ 1013.0, 442.0, 141.0, 22.0 ],
					"saved_object_attributes" : 					{
						"description" : "",
						"digest" : "",
						"globalpatchername" : "",
						"style" : "",
						"tags" : ""
					}
,
					"style" : "",
					"text" : "p placeSpeakersCircular"
				}

			}
, 			{
				"box" : 				{
					"fontname" : "Arial",
					"fontsize" : 11.0,
					"format" : 6,
					"id" : "obj-54",
					"maxclass" : "flonum",
					"numinlets" : 1,
					"numoutlets" : 2,
					"outlettype" : [ "", "bang" ],
					"parameter_enable" : 0,
					"patching_rect" : [ 1132.0, 179.0, 50.0, 21.0 ],
					"style" : ""
				}

			}
, 			{
				"box" : 				{
					"id" : "obj-51",
					"maxclass" : "message",
					"numinlets" : 2,
					"numoutlets" : 1,
					"outlettype" : [ "" ],
					"patching_rect" : [ 1132.0, 213.5, 95.0, 22.0 ],
					"style" : "",
					"text" : "source 1 dist $1"
				}

			}
, 			{
				"box" : 				{
					"id" : "obj-8",
					"maxclass" : "newobj",
					"numinlets" : 1,
					"numoutlets" : 7,
					"outlettype" : [ "source", "speakers", "source", "", "listener", "", "" ],
					"patching_rect" : [ 990.0, 488.0, 528.0, 22.0 ],
					"saved_object_attributes" : 					{
						"parameter_enable" : 0
					}
,
					"style" : "",
					"text" : "spat.viewer @numsources 3 @numspeakers 40 @showlistener 0 @showaperture 0 @zoom 0.18"
				}

			}
, 			{
				"box" : 				{
					"id" : "obj-5",
					"maxclass" : "newobj",
					"numinlets" : 3,
					"numoutlets" : 41,
					"outlettype" : [ "signal", "signal", "signal", "signal", "signal", "signal", "signal", "signal", "signal", "signal", "signal", "signal", "signal", "signal", "signal", "signal", "signal", "signal", "signal", "signal", "signal", "signal", "signal", "signal", "signal", "signal", "signal", "signal", "signal", "signal", "signal", "signal", "signal", "signal", "signal", "signal", "signal", "signal", "signal", "signal", "" ],
					"patching_rect" : [ 990.0, 912.5, 439.0, 22.0 ],
					"saved_object_attributes" : 					{
						"parameter_enable" : 0
					}
,
					"style" : "",
					"text" : "spat.pan~ @numinputs 3 @numoutputs 40 @aperture 180 @type dbap"
				}

			}
, 			{
				"box" : 				{
					"format" : 6,
					"id" : "obj-36",
					"maxclass" : "flonum",
					"numinlets" : 1,
					"numoutlets" : 2,
					"outlettype" : [ "", "bang" ],
					"parameter_enable" : 0,
					"patching_rect" : [ 570.0, 213.0, 50.0, 22.0 ],
					"style" : ""
				}

			}
, 			{
				"box" : 				{
					"format" : 6,
					"id" : "obj-37",
					"maxclass" : "flonum",
					"numinlets" : 1,
					"numoutlets" : 2,
					"outlettype" : [ "", "bang" ],
					"parameter_enable" : 0,
					"patching_rect" : [ 510.0, 213.0, 50.0, 22.0 ],
					"style" : ""
				}

			}
, 			{
				"box" : 				{
					"id" : "obj-38",
					"maxclass" : "newobj",
					"numinlets" : 2,
					"numoutlets" : 1,
					"outlettype" : [ "" ],
					"patching_rect" : [ 510.0, 246.0, 57.0, 22.0 ],
					"style" : "",
					"text" : "pak 0. 0."
				}

			}
, 			{
				"box" : 				{
					"id" : "obj-39",
					"maxclass" : "message",
					"numinlets" : 2,
					"numoutlets" : 1,
					"outlettype" : [ "" ],
					"patching_rect" : [ 510.0, 281.0, 105.0, 22.0 ],
					"style" : "",
					"text" : "source 2 xy $1 $2"
				}

			}
, 			{
				"box" : 				{
					"bgmode" : 0,
					"border" : 0,
					"clickthrough" : 0,
					"enablehscroll" : 0,
					"enablevscroll" : 0,
					"id" : "obj-1",
					"lockeddragscroll" : 0,
					"maxclass" : "bpatcher",
					"name" : "spat.monitor.maxpat",
					"numinlets" : 1,
					"numoutlets" : 0,
					"offset" : [ 0.0, 0.0 ],
					"patching_rect" : [ 1124.0, 1008.5, 410.0, 148.0 ],
					"viewvisibility" : 1
				}

			}
, 			{
				"box" : 				{
					"fontname" : "Arial",
					"fontsize" : 11.0,
					"id" : "obj-22",
					"linecount" : 3,
					"maxclass" : "newobj",
					"numinlets" : 1,
					"numoutlets" : 2,
					"outlettype" : [ "", "" ],
					"patching_rect" : [ 985.5, 1002.0, 115.0, 45.0 ],
					"saved_object_attributes" : 					{
						"parameter_enable" : 0
					}
,
					"style" : "",
					"text" : "spat.eq~.control @numchannels 4 @numcascades 6"
				}

			}
, 			{
				"box" : 				{
					"id" : "obj-20",
					"maxclass" : "newobj",
					"numinlets" : 40,
					"numoutlets" : 41,
					"outlettype" : [ "signal", "signal", "signal", "signal", "signal", "signal", "signal", "signal", "signal", "signal", "signal", "signal", "signal", "signal", "signal", "signal", "signal", "signal", "signal", "signal", "signal", "signal", "signal", "signal", "signal", "signal", "signal", "signal", "signal", "signal", "signal", "signal", "signal", "signal", "signal", "signal", "signal", "signal", "signal", "signal", "" ],
					"patching_rect" : [ 284.000031, 1066.0, 675.410278, 22.0 ],
					"saved_object_attributes" : 					{
						"parameter_enable" : 0
					}
,
					"style" : "",
					"text" : "spat.eq~ @numchannels 40 @numcascades 6"
				}

			}
, 			{
				"box" : 				{
					"id" : "obj-27",
					"maxclass" : "newobj",
					"numinlets" : 40,
					"numoutlets" : 0,
					"patching_rect" : [ 286.871826, 1177.0, 656.128235, 22.0 ],
					"style" : "",
					"text" : "dac~ 1 2 3 4 5 6 7 8 9 10 11 12 13 14 15 16 17 18 19 20 21 22 23 24 25 26 27 28 29 30 31 32 33 34 35 36 37 38 39 40"
				}

			}
, 			{
				"box" : 				{
					"id" : "obj-21",
					"maxclass" : "newobj",
					"numinlets" : 1,
					"numoutlets" : 7,
					"outlettype" : [ "source", "speakers", "source", "", "listener", "", "" ],
					"patching_rect" : [ 284.0, 488.0, 528.0, 22.0 ],
					"saved_object_attributes" : 					{
						"parameter_enable" : 0
					}
,
					"style" : "",
					"text" : "spat.viewer @numsources 2 @numspeakers 40 @showlistener 0 @showaperture 0 @zoom 0.18"
				}

			}
, 			{
				"box" : 				{
					"format" : 6,
					"id" : "obj-18",
					"maxclass" : "flonum",
					"numinlets" : 1,
					"numoutlets" : 2,
					"outlettype" : [ "", "bang" ],
					"parameter_enable" : 0,
					"patching_rect" : [ 346.0, 209.5, 50.0, 22.0 ],
					"style" : ""
				}

			}
, 			{
				"box" : 				{
					"format" : 6,
					"id" : "obj-16",
					"maxclass" : "flonum",
					"numinlets" : 1,
					"numoutlets" : 2,
					"outlettype" : [ "", "bang" ],
					"parameter_enable" : 0,
					"patching_rect" : [ 286.0, 209.5, 50.0, 22.0 ],
					"style" : ""
				}

			}
, 			{
				"box" : 				{
					"id" : "obj-12",
					"maxclass" : "newobj",
					"numinlets" : 2,
					"numoutlets" : 1,
					"outlettype" : [ "" ],
					"patching_rect" : [ 286.0, 246.0, 57.0, 22.0 ],
					"style" : "",
					"text" : "pak 0. 0."
				}

			}
, 			{
				"box" : 				{
					"id" : "obj-11",
					"maxclass" : "message",
					"numinlets" : 2,
					"numoutlets" : 1,
					"outlettype" : [ "" ],
					"patching_rect" : [ 286.0, 281.0, 105.0, 22.0 ],
					"style" : "",
					"text" : "source 1 xy $1 $2"
				}

			}
, 			{
				"box" : 				{
					"id" : "obj-4",
					"maxclass" : "newobj",
					"numinlets" : 40,
					"numoutlets" : 41,
					"outlettype" : [ "signal", "signal", "signal", "signal", "signal", "signal", "signal", "signal", "signal", "signal", "signal", "signal", "signal", "signal", "signal", "signal", "signal", "signal", "signal", "signal", "signal", "signal", "signal", "signal", "signal", "signal", "signal", "signal", "signal", "signal", "signal", "signal", "signal", "signal", "signal", "signal", "signal", "signal", "signal", "signal", "" ],
					"patching_rect" : [ 953.0, 1177.0, 659.0, 22.0 ],
					"saved_object_attributes" : 					{
						"parameter_enable" : 0
					}
,
					"style" : "",
					"text" : "spat.meter~ @numchannels 40"
				}

			}
, 			{
				"box" : 				{
					"id" : "obj-3",
					"maxclass" : "newobj",
					"numinlets" : 2,
					"numoutlets" : 41,
					"outlettype" : [ "signal", "signal", "signal", "signal", "signal", "signal", "signal", "signal", "signal", "signal", "signal", "signal", "signal", "signal", "signal", "signal", "signal", "signal", "signal", "signal", "signal", "signal", "signal", "signal", "signal", "signal", "signal", "signal", "signal", "signal", "signal", "signal", "signal", "signal", "signal", "signal", "signal", "signal", "signal", "signal", "" ],
					"patching_rect" : [ 284.0, 912.5, 692.241333, 22.0 ],
					"saved_object_attributes" : 					{
						"parameter_enable" : 0
					}
,
					"style" : "",
					"text" : "spat.pan~ @numinputs 2 @numoutputs 40 @type spcap"
				}

			}
 ],
		"lines" : [ 			{
				"patchline" : 				{
					"destination" : [ "obj-94", 0 ],
					"disabled" : 0,
					"hidden" : 0,
					"source" : [ "obj-11", 0 ]
				}

			}
, 			{
				"patchline" : 				{
					"destination" : [ "obj-11", 0 ],
					"disabled" : 0,
					"hidden" : 0,
					"source" : [ "obj-12", 0 ]
				}

			}
, 			{
				"patchline" : 				{
					"destination" : [ "obj-9", 0 ],
					"disabled" : 0,
					"hidden" : 1,
					"source" : [ "obj-13", 0 ]
				}

			}
, 			{
				"patchline" : 				{
					"destination" : [ "obj-159", 0 ],
					"disabled" : 0,
					"hidden" : 0,
					"source" : [ "obj-152", 0 ]
				}

			}
, 			{
				"patchline" : 				{
					"destination" : [ "obj-5", 0 ],
					"disabled" : 0,
					"hidden" : 0,
					"source" : [ "obj-157", 0 ]
				}

			}
, 			{
				"patchline" : 				{
					"destination" : [ "obj-5", 1 ],
					"disabled" : 0,
					"hidden" : 0,
					"source" : [ "obj-158", 0 ]
				}

			}
, 			{
				"patchline" : 				{
					"destination" : [ "obj-8", 0 ],
					"disabled" : 0,
					"hidden" : 0,
					"source" : [ "obj-159", 0 ]
				}

			}
, 			{
				"patchline" : 				{
					"destination" : [ "obj-12", 0 ],
					"disabled" : 0,
					"hidden" : 0,
					"source" : [ "obj-16", 0 ]
				}

			}
, 			{
				"patchline" : 				{
					"destination" : [ "obj-5", 0 ],
					"disabled" : 0,
					"hidden" : 0,
					"source" : [ "obj-167", 0 ]
				}

			}
, 			{
				"patchline" : 				{
					"destination" : [ "obj-12", 1 ],
					"disabled" : 0,
					"hidden" : 0,
					"source" : [ "obj-18", 0 ]
				}

			}
, 			{
				"patchline" : 				{
					"destination" : [ "obj-13", 0 ],
					"disabled" : 0,
					"hidden" : 1,
					"source" : [ "obj-2", 0 ]
				}

			}
, 			{
				"patchline" : 				{
					"destination" : [ "obj-27", 39 ],
					"disabled" : 0,
					"hidden" : 0,
					"source" : [ "obj-20", 39 ]
				}

			}
, 			{
				"patchline" : 				{
					"destination" : [ "obj-27", 38 ],
					"disabled" : 0,
					"hidden" : 0,
					"source" : [ "obj-20", 38 ]
				}

			}
, 			{
				"patchline" : 				{
					"destination" : [ "obj-27", 37 ],
					"disabled" : 0,
					"hidden" : 0,
					"source" : [ "obj-20", 37 ]
				}

			}
, 			{
				"patchline" : 				{
					"destination" : [ "obj-27", 36 ],
					"disabled" : 0,
					"hidden" : 0,
					"source" : [ "obj-20", 36 ]
				}

			}
, 			{
				"patchline" : 				{
					"destination" : [ "obj-27", 35 ],
					"disabled" : 0,
					"hidden" : 0,
					"source" : [ "obj-20", 35 ]
				}

			}
, 			{
				"patchline" : 				{
					"destination" : [ "obj-27", 34 ],
					"disabled" : 0,
					"hidden" : 0,
					"source" : [ "obj-20", 34 ]
				}

			}
, 			{
				"patchline" : 				{
					"destination" : [ "obj-27", 33 ],
					"disabled" : 0,
					"hidden" : 0,
					"source" : [ "obj-20", 33 ]
				}

			}
, 			{
				"patchline" : 				{
					"destination" : [ "obj-27", 32 ],
					"disabled" : 0,
					"hidden" : 0,
					"source" : [ "obj-20", 32 ]
				}

			}
, 			{
				"patchline" : 				{
					"destination" : [ "obj-27", 31 ],
					"disabled" : 0,
					"hidden" : 0,
					"source" : [ "obj-20", 31 ]
				}

			}
, 			{
				"patchline" : 				{
					"destination" : [ "obj-27", 30 ],
					"disabled" : 0,
					"hidden" : 0,
					"source" : [ "obj-20", 30 ]
				}

			}
, 			{
				"patchline" : 				{
					"destination" : [ "obj-27", 29 ],
					"disabled" : 0,
					"hidden" : 0,
					"source" : [ "obj-20", 29 ]
				}

			}
, 			{
				"patchline" : 				{
					"destination" : [ "obj-27", 28 ],
					"disabled" : 0,
					"hidden" : 0,
					"source" : [ "obj-20", 28 ]
				}

			}
, 			{
				"patchline" : 				{
					"destination" : [ "obj-27", 27 ],
					"disabled" : 0,
					"hidden" : 0,
					"source" : [ "obj-20", 27 ]
				}

			}
, 			{
				"patchline" : 				{
					"destination" : [ "obj-27", 26 ],
					"disabled" : 0,
					"hidden" : 0,
					"source" : [ "obj-20", 26 ]
				}

			}
, 			{
				"patchline" : 				{
					"destination" : [ "obj-27", 25 ],
					"disabled" : 0,
					"hidden" : 0,
					"source" : [ "obj-20", 25 ]
				}

			}
, 			{
				"patchline" : 				{
					"destination" : [ "obj-27", 24 ],
					"disabled" : 0,
					"hidden" : 0,
					"source" : [ "obj-20", 24 ]
				}

			}
, 			{
				"patchline" : 				{
					"destination" : [ "obj-27", 23 ],
					"disabled" : 0,
					"hidden" : 0,
					"source" : [ "obj-20", 23 ]
				}

			}
, 			{
				"patchline" : 				{
					"destination" : [ "obj-27", 22 ],
					"disabled" : 0,
					"hidden" : 0,
					"source" : [ "obj-20", 22 ]
				}

			}
, 			{
				"patchline" : 				{
					"destination" : [ "obj-27", 21 ],
					"disabled" : 0,
					"hidden" : 0,
					"source" : [ "obj-20", 21 ]
				}

			}
, 			{
				"patchline" : 				{
					"destination" : [ "obj-27", 20 ],
					"disabled" : 0,
					"hidden" : 0,
					"source" : [ "obj-20", 20 ]
				}

			}
, 			{
				"patchline" : 				{
					"destination" : [ "obj-27", 19 ],
					"disabled" : 0,
					"hidden" : 0,
					"source" : [ "obj-20", 19 ]
				}

			}
, 			{
				"patchline" : 				{
					"destination" : [ "obj-27", 18 ],
					"disabled" : 0,
					"hidden" : 0,
					"source" : [ "obj-20", 18 ]
				}

			}
, 			{
				"patchline" : 				{
					"destination" : [ "obj-27", 17 ],
					"disabled" : 0,
					"hidden" : 0,
					"source" : [ "obj-20", 17 ]
				}

			}
, 			{
				"patchline" : 				{
					"destination" : [ "obj-27", 16 ],
					"disabled" : 0,
					"hidden" : 0,
					"source" : [ "obj-20", 16 ]
				}

			}
, 			{
				"patchline" : 				{
					"destination" : [ "obj-27", 15 ],
					"disabled" : 0,
					"hidden" : 0,
					"source" : [ "obj-20", 15 ]
				}

			}
, 			{
				"patchline" : 				{
					"destination" : [ "obj-27", 14 ],
					"disabled" : 0,
					"hidden" : 0,
					"source" : [ "obj-20", 14 ]
				}

			}
, 			{
				"patchline" : 				{
					"destination" : [ "obj-27", 13 ],
					"disabled" : 0,
					"hidden" : 0,
					"source" : [ "obj-20", 13 ]
				}

			}
, 			{
				"patchline" : 				{
					"destination" : [ "obj-27", 12 ],
					"disabled" : 0,
					"hidden" : 0,
					"source" : [ "obj-20", 12 ]
				}

			}
, 			{
				"patchline" : 				{
					"destination" : [ "obj-27", 11 ],
					"disabled" : 0,
					"hidden" : 0,
					"source" : [ "obj-20", 11 ]
				}

			}
, 			{
				"patchline" : 				{
					"destination" : [ "obj-27", 10 ],
					"disabled" : 0,
					"hidden" : 0,
					"source" : [ "obj-20", 10 ]
				}

			}
, 			{
				"patchline" : 				{
					"destination" : [ "obj-27", 9 ],
					"disabled" : 0,
					"hidden" : 0,
					"source" : [ "obj-20", 9 ]
				}

			}
, 			{
				"patchline" : 				{
					"destination" : [ "obj-27", 8 ],
					"disabled" : 0,
					"hidden" : 0,
					"source" : [ "obj-20", 8 ]
				}

			}
, 			{
				"patchline" : 				{
					"destination" : [ "obj-27", 7 ],
					"disabled" : 0,
					"hidden" : 0,
					"source" : [ "obj-20", 7 ]
				}

			}
, 			{
				"patchline" : 				{
					"destination" : [ "obj-27", 6 ],
					"disabled" : 0,
					"hidden" : 0,
					"source" : [ "obj-20", 6 ]
				}

			}
, 			{
				"patchline" : 				{
					"destination" : [ "obj-27", 5 ],
					"disabled" : 0,
					"hidden" : 0,
					"source" : [ "obj-20", 5 ]
				}

			}
, 			{
				"patchline" : 				{
					"destination" : [ "obj-27", 4 ],
					"disabled" : 0,
					"hidden" : 0,
					"source" : [ "obj-20", 4 ]
				}

			}
, 			{
				"patchline" : 				{
					"destination" : [ "obj-27", 3 ],
					"disabled" : 0,
					"hidden" : 0,
					"source" : [ "obj-20", 3 ]
				}

			}
, 			{
				"patchline" : 				{
					"destination" : [ "obj-27", 2 ],
					"disabled" : 0,
					"hidden" : 0,
					"source" : [ "obj-20", 2 ]
				}

			}
, 			{
				"patchline" : 				{
					"destination" : [ "obj-27", 1 ],
					"disabled" : 0,
					"hidden" : 0,
					"source" : [ "obj-20", 1 ]
				}

			}
, 			{
				"patchline" : 				{
					"destination" : [ "obj-27", 0 ],
					"disabled" : 0,
					"hidden" : 0,
					"source" : [ "obj-20", 0 ]
				}

			}
, 			{
				"patchline" : 				{
					"destination" : [ "obj-4", 39 ],
					"disabled" : 0,
					"hidden" : 0,
					"source" : [ "obj-20", 39 ]
				}

			}
, 			{
				"patchline" : 				{
					"destination" : [ "obj-4", 38 ],
					"disabled" : 0,
					"hidden" : 0,
					"source" : [ "obj-20", 38 ]
				}

			}
, 			{
				"patchline" : 				{
					"destination" : [ "obj-4", 37 ],
					"disabled" : 0,
					"hidden" : 0,
					"source" : [ "obj-20", 37 ]
				}

			}
, 			{
				"patchline" : 				{
					"destination" : [ "obj-4", 36 ],
					"disabled" : 0,
					"hidden" : 0,
					"source" : [ "obj-20", 36 ]
				}

			}
, 			{
				"patchline" : 				{
					"destination" : [ "obj-4", 35 ],
					"disabled" : 0,
					"hidden" : 0,
					"source" : [ "obj-20", 35 ]
				}

			}
, 			{
				"patchline" : 				{
					"destination" : [ "obj-4", 34 ],
					"disabled" : 0,
					"hidden" : 0,
					"source" : [ "obj-20", 34 ]
				}

			}
, 			{
				"patchline" : 				{
					"destination" : [ "obj-4", 33 ],
					"disabled" : 0,
					"hidden" : 0,
					"source" : [ "obj-20", 33 ]
				}

			}
, 			{
				"patchline" : 				{
					"destination" : [ "obj-4", 32 ],
					"disabled" : 0,
					"hidden" : 0,
					"source" : [ "obj-20", 32 ]
				}

			}
, 			{
				"patchline" : 				{
					"destination" : [ "obj-4", 31 ],
					"disabled" : 0,
					"hidden" : 0,
					"source" : [ "obj-20", 31 ]
				}

			}
, 			{
				"patchline" : 				{
					"destination" : [ "obj-4", 30 ],
					"disabled" : 0,
					"hidden" : 0,
					"source" : [ "obj-20", 30 ]
				}

			}
, 			{
				"patchline" : 				{
					"destination" : [ "obj-4", 29 ],
					"disabled" : 0,
					"hidden" : 0,
					"source" : [ "obj-20", 29 ]
				}

			}
, 			{
				"patchline" : 				{
					"destination" : [ "obj-4", 28 ],
					"disabled" : 0,
					"hidden" : 0,
					"source" : [ "obj-20", 28 ]
				}

			}
, 			{
				"patchline" : 				{
					"destination" : [ "obj-4", 27 ],
					"disabled" : 0,
					"hidden" : 0,
					"source" : [ "obj-20", 27 ]
				}

			}
, 			{
				"patchline" : 				{
					"destination" : [ "obj-4", 26 ],
					"disabled" : 0,
					"hidden" : 0,
					"source" : [ "obj-20", 26 ]
				}

			}
, 			{
				"patchline" : 				{
					"destination" : [ "obj-4", 25 ],
					"disabled" : 0,
					"hidden" : 0,
					"source" : [ "obj-20", 25 ]
				}

			}
, 			{
				"patchline" : 				{
					"destination" : [ "obj-4", 24 ],
					"disabled" : 0,
					"hidden" : 0,
					"source" : [ "obj-20", 24 ]
				}

			}
, 			{
				"patchline" : 				{
					"destination" : [ "obj-4", 23 ],
					"disabled" : 0,
					"hidden" : 0,
					"source" : [ "obj-20", 23 ]
				}

			}
, 			{
				"patchline" : 				{
					"destination" : [ "obj-4", 22 ],
					"disabled" : 0,
					"hidden" : 0,
					"source" : [ "obj-20", 22 ]
				}

			}
, 			{
				"patchline" : 				{
					"destination" : [ "obj-4", 21 ],
					"disabled" : 0,
					"hidden" : 0,
					"source" : [ "obj-20", 21 ]
				}

			}
, 			{
				"patchline" : 				{
					"destination" : [ "obj-4", 20 ],
					"disabled" : 0,
					"hidden" : 0,
					"source" : [ "obj-20", 20 ]
				}

			}
, 			{
				"patchline" : 				{
					"destination" : [ "obj-4", 19 ],
					"disabled" : 0,
					"hidden" : 0,
					"source" : [ "obj-20", 19 ]
				}

			}
, 			{
				"patchline" : 				{
					"destination" : [ "obj-4", 18 ],
					"disabled" : 0,
					"hidden" : 0,
					"source" : [ "obj-20", 18 ]
				}

			}
, 			{
				"patchline" : 				{
					"destination" : [ "obj-4", 17 ],
					"disabled" : 0,
					"hidden" : 0,
					"source" : [ "obj-20", 17 ]
				}

			}
, 			{
				"patchline" : 				{
					"destination" : [ "obj-4", 16 ],
					"disabled" : 0,
					"hidden" : 0,
					"source" : [ "obj-20", 16 ]
				}

			}
, 			{
				"patchline" : 				{
					"destination" : [ "obj-4", 15 ],
					"disabled" : 0,
					"hidden" : 0,
					"source" : [ "obj-20", 15 ]
				}

			}
, 			{
				"patchline" : 				{
					"destination" : [ "obj-4", 14 ],
					"disabled" : 0,
					"hidden" : 0,
					"source" : [ "obj-20", 14 ]
				}

			}
, 			{
				"patchline" : 				{
					"destination" : [ "obj-4", 13 ],
					"disabled" : 0,
					"hidden" : 0,
					"source" : [ "obj-20", 13 ]
				}

			}
, 			{
				"patchline" : 				{
					"destination" : [ "obj-4", 12 ],
					"disabled" : 0,
					"hidden" : 0,
					"source" : [ "obj-20", 12 ]
				}

			}
, 			{
				"patchline" : 				{
					"destination" : [ "obj-4", 11 ],
					"disabled" : 0,
					"hidden" : 0,
					"source" : [ "obj-20", 11 ]
				}

			}
, 			{
				"patchline" : 				{
					"destination" : [ "obj-4", 10 ],
					"disabled" : 0,
					"hidden" : 0,
					"source" : [ "obj-20", 10 ]
				}

			}
, 			{
				"patchline" : 				{
					"destination" : [ "obj-4", 9 ],
					"disabled" : 0,
					"hidden" : 0,
					"source" : [ "obj-20", 9 ]
				}

			}
, 			{
				"patchline" : 				{
					"destination" : [ "obj-4", 8 ],
					"disabled" : 0,
					"hidden" : 0,
					"source" : [ "obj-20", 8 ]
				}

			}
, 			{
				"patchline" : 				{
					"destination" : [ "obj-4", 7 ],
					"disabled" : 0,
					"hidden" : 0,
					"source" : [ "obj-20", 7 ]
				}

			}
, 			{
				"patchline" : 				{
					"destination" : [ "obj-4", 6 ],
					"disabled" : 0,
					"hidden" : 0,
					"source" : [ "obj-20", 6 ]
				}

			}
, 			{
				"patchline" : 				{
					"destination" : [ "obj-4", 5 ],
					"disabled" : 0,
					"hidden" : 0,
					"source" : [ "obj-20", 5 ]
				}

			}
, 			{
				"patchline" : 				{
					"destination" : [ "obj-4", 4 ],
					"disabled" : 0,
					"hidden" : 0,
					"source" : [ "obj-20", 4 ]
				}

			}
, 			{
				"patchline" : 				{
					"destination" : [ "obj-4", 3 ],
					"disabled" : 0,
					"hidden" : 0,
					"source" : [ "obj-20", 3 ]
				}

			}
, 			{
				"patchline" : 				{
					"destination" : [ "obj-4", 2 ],
					"disabled" : 0,
					"hidden" : 0,
					"source" : [ "obj-20", 2 ]
				}

			}
, 			{
				"patchline" : 				{
					"destination" : [ "obj-4", 1 ],
					"disabled" : 0,
					"hidden" : 0,
					"source" : [ "obj-20", 1 ]
				}

			}
, 			{
				"patchline" : 				{
					"destination" : [ "obj-4", 0 ],
					"disabled" : 0,
					"hidden" : 0,
					"source" : [ "obj-20", 0 ]
				}

			}
, 			{
				"patchline" : 				{
					"destination" : [ "obj-96", 0 ],
					"disabled" : 0,
					"hidden" : 0,
					"midpoints" : [ 378.333344, 525.0, 293.5, 525.0 ],
					"source" : [ "obj-21", 1 ]
				}

			}
, 			{
				"patchline" : 				{
					"destination" : [ "obj-96", 0 ],
					"disabled" : 0,
					"hidden" : 0,
					"midpoints" : [ 293.5, 525.0, 293.5, 525.0 ],
					"source" : [ "obj-21", 0 ]
				}

			}
, 			{
				"patchline" : 				{
					"destination" : [ "obj-20", 0 ],
					"disabled" : 0,
					"hidden" : 0,
					"midpoints" : [ 995.0, 1050.0, 293.500031, 1050.0 ],
					"source" : [ "obj-22", 0 ]
				}

			}
, 			{
				"patchline" : 				{
					"destination" : [ "obj-20", 39 ],
					"disabled" : 0,
					"hidden" : 0,
					"source" : [ "obj-3", 39 ]
				}

			}
, 			{
				"patchline" : 				{
					"destination" : [ "obj-20", 38 ],
					"disabled" : 0,
					"hidden" : 0,
					"source" : [ "obj-3", 38 ]
				}

			}
, 			{
				"patchline" : 				{
					"destination" : [ "obj-20", 37 ],
					"disabled" : 0,
					"hidden" : 0,
					"source" : [ "obj-3", 37 ]
				}

			}
, 			{
				"patchline" : 				{
					"destination" : [ "obj-20", 36 ],
					"disabled" : 0,
					"hidden" : 0,
					"source" : [ "obj-3", 36 ]
				}

			}
, 			{
				"patchline" : 				{
					"destination" : [ "obj-20", 35 ],
					"disabled" : 0,
					"hidden" : 0,
					"source" : [ "obj-3", 35 ]
				}

			}
, 			{
				"patchline" : 				{
					"destination" : [ "obj-20", 34 ],
					"disabled" : 0,
					"hidden" : 0,
					"source" : [ "obj-3", 34 ]
				}

			}
, 			{
				"patchline" : 				{
					"destination" : [ "obj-20", 33 ],
					"disabled" : 0,
					"hidden" : 0,
					"source" : [ "obj-3", 33 ]
				}

			}
, 			{
				"patchline" : 				{
					"destination" : [ "obj-20", 32 ],
					"disabled" : 0,
					"hidden" : 0,
					"source" : [ "obj-3", 32 ]
				}

			}
, 			{
				"patchline" : 				{
					"destination" : [ "obj-20", 31 ],
					"disabled" : 0,
					"hidden" : 0,
					"source" : [ "obj-3", 31 ]
				}

			}
, 			{
				"patchline" : 				{
					"destination" : [ "obj-20", 30 ],
					"disabled" : 0,
					"hidden" : 0,
					"source" : [ "obj-3", 30 ]
				}

			}
, 			{
				"patchline" : 				{
					"destination" : [ "obj-20", 29 ],
					"disabled" : 0,
					"hidden" : 0,
					"source" : [ "obj-3", 29 ]
				}

			}
, 			{
				"patchline" : 				{
					"destination" : [ "obj-20", 28 ],
					"disabled" : 0,
					"hidden" : 0,
					"source" : [ "obj-3", 28 ]
				}

			}
, 			{
				"patchline" : 				{
					"destination" : [ "obj-20", 27 ],
					"disabled" : 0,
					"hidden" : 0,
					"source" : [ "obj-3", 27 ]
				}

			}
, 			{
				"patchline" : 				{
					"destination" : [ "obj-20", 26 ],
					"disabled" : 0,
					"hidden" : 0,
					"source" : [ "obj-3", 26 ]
				}

			}
, 			{
				"patchline" : 				{
					"destination" : [ "obj-20", 25 ],
					"disabled" : 0,
					"hidden" : 0,
					"source" : [ "obj-3", 25 ]
				}

			}
, 			{
				"patchline" : 				{
					"destination" : [ "obj-20", 24 ],
					"disabled" : 0,
					"hidden" : 0,
					"source" : [ "obj-3", 24 ]
				}

			}
, 			{
				"patchline" : 				{
					"destination" : [ "obj-20", 23 ],
					"disabled" : 0,
					"hidden" : 0,
					"source" : [ "obj-3", 23 ]
				}

			}
, 			{
				"patchline" : 				{
					"destination" : [ "obj-20", 22 ],
					"disabled" : 0,
					"hidden" : 0,
					"source" : [ "obj-3", 22 ]
				}

			}
, 			{
				"patchline" : 				{
					"destination" : [ "obj-20", 21 ],
					"disabled" : 0,
					"hidden" : 0,
					"source" : [ "obj-3", 21 ]
				}

			}
, 			{
				"patchline" : 				{
					"destination" : [ "obj-20", 20 ],
					"disabled" : 0,
					"hidden" : 0,
					"source" : [ "obj-3", 20 ]
				}

			}
, 			{
				"patchline" : 				{
					"destination" : [ "obj-20", 19 ],
					"disabled" : 0,
					"hidden" : 0,
					"source" : [ "obj-3", 19 ]
				}

			}
, 			{
				"patchline" : 				{
					"destination" : [ "obj-20", 18 ],
					"disabled" : 0,
					"hidden" : 0,
					"source" : [ "obj-3", 18 ]
				}

			}
, 			{
				"patchline" : 				{
					"destination" : [ "obj-20", 17 ],
					"disabled" : 0,
					"hidden" : 0,
					"source" : [ "obj-3", 17 ]
				}

			}
, 			{
				"patchline" : 				{
					"destination" : [ "obj-20", 16 ],
					"disabled" : 0,
					"hidden" : 0,
					"source" : [ "obj-3", 16 ]
				}

			}
, 			{
				"patchline" : 				{
					"destination" : [ "obj-20", 15 ],
					"disabled" : 0,
					"hidden" : 0,
					"source" : [ "obj-3", 15 ]
				}

			}
, 			{
				"patchline" : 				{
					"destination" : [ "obj-20", 14 ],
					"disabled" : 0,
					"hidden" : 0,
					"source" : [ "obj-3", 14 ]
				}

			}
, 			{
				"patchline" : 				{
					"destination" : [ "obj-20", 13 ],
					"disabled" : 0,
					"hidden" : 0,
					"source" : [ "obj-3", 13 ]
				}

			}
, 			{
				"patchline" : 				{
					"destination" : [ "obj-20", 12 ],
					"disabled" : 0,
					"hidden" : 0,
					"source" : [ "obj-3", 12 ]
				}

			}
, 			{
				"patchline" : 				{
					"destination" : [ "obj-20", 11 ],
					"disabled" : 0,
					"hidden" : 0,
					"source" : [ "obj-3", 11 ]
				}

			}
, 			{
				"patchline" : 				{
					"destination" : [ "obj-20", 10 ],
					"disabled" : 0,
					"hidden" : 0,
					"source" : [ "obj-3", 10 ]
				}

			}
, 			{
				"patchline" : 				{
					"destination" : [ "obj-20", 9 ],
					"disabled" : 0,
					"hidden" : 0,
					"source" : [ "obj-3", 9 ]
				}

			}
, 			{
				"patchline" : 				{
					"destination" : [ "obj-20", 8 ],
					"disabled" : 0,
					"hidden" : 0,
					"source" : [ "obj-3", 8 ]
				}

			}
, 			{
				"patchline" : 				{
					"destination" : [ "obj-20", 7 ],
					"disabled" : 0,
					"hidden" : 0,
					"source" : [ "obj-3", 7 ]
				}

			}
, 			{
				"patchline" : 				{
					"destination" : [ "obj-20", 6 ],
					"disabled" : 0,
					"hidden" : 0,
					"source" : [ "obj-3", 6 ]
				}

			}
, 			{
				"patchline" : 				{
					"destination" : [ "obj-20", 5 ],
					"disabled" : 0,
					"hidden" : 0,
					"source" : [ "obj-3", 5 ]
				}

			}
, 			{
				"patchline" : 				{
					"destination" : [ "obj-20", 4 ],
					"disabled" : 0,
					"hidden" : 0,
					"source" : [ "obj-3", 4 ]
				}

			}
, 			{
				"patchline" : 				{
					"destination" : [ "obj-20", 3 ],
					"disabled" : 0,
					"hidden" : 0,
					"source" : [ "obj-3", 3 ]
				}

			}
, 			{
				"patchline" : 				{
					"destination" : [ "obj-20", 2 ],
					"disabled" : 0,
					"hidden" : 0,
					"source" : [ "obj-3", 2 ]
				}

			}
, 			{
				"patchline" : 				{
					"destination" : [ "obj-20", 1 ],
					"disabled" : 0,
					"hidden" : 0,
					"source" : [ "obj-3", 1 ]
				}

			}
, 			{
				"patchline" : 				{
					"destination" : [ "obj-20", 0 ],
					"disabled" : 0,
					"hidden" : 0,
					"source" : [ "obj-3", 0 ]
				}

			}
, 			{
				"patchline" : 				{
					"destination" : [ "obj-5", 2 ],
					"disabled" : 0,
					"hidden" : 0,
					"source" : [ "obj-33", 0 ]
				}

			}
, 			{
				"patchline" : 				{
					"destination" : [ "obj-40", 0 ],
					"disabled" : 0,
					"hidden" : 0,
					"source" : [ "obj-34", 0 ]
				}

			}
, 			{
				"patchline" : 				{
					"destination" : [ "obj-38", 1 ],
					"disabled" : 0,
					"hidden" : 0,
					"source" : [ "obj-36", 0 ]
				}

			}
, 			{
				"patchline" : 				{
					"destination" : [ "obj-38", 0 ],
					"disabled" : 0,
					"hidden" : 0,
					"source" : [ "obj-37", 0 ]
				}

			}
, 			{
				"patchline" : 				{
					"destination" : [ "obj-39", 0 ],
					"disabled" : 0,
					"hidden" : 0,
					"source" : [ "obj-38", 0 ]
				}

			}
, 			{
				"patchline" : 				{
					"destination" : [ "obj-94", 0 ],
					"disabled" : 0,
					"hidden" : 0,
					"source" : [ "obj-39", 0 ]
				}

			}
, 			{
				"patchline" : 				{
					"destination" : [ "obj-21", 0 ],
					"disabled" : 0,
					"hidden" : 0,
					"source" : [ "obj-40", 0 ]
				}

			}
, 			{
				"patchline" : 				{
					"destination" : [ "obj-167", 0 ],
					"disabled" : 0,
					"hidden" : 0,
					"midpoints" : [ 957.0, 799.0, 911.5, 799.0 ],
					"source" : [ "obj-47", 1 ]
				}

			}
, 			{
				"patchline" : 				{
					"destination" : [ "obj-49", 0 ],
					"disabled" : 0,
					"hidden" : 0,
					"source" : [ "obj-48", 0 ]
				}

			}
, 			{
				"patchline" : 				{
					"destination" : [ "obj-53", 0 ],
					"disabled" : 0,
					"hidden" : 0,
					"source" : [ "obj-49", 0 ]
				}

			}
, 			{
				"patchline" : 				{
					"destination" : [ "obj-20", 39 ],
					"disabled" : 0,
					"hidden" : 0,
					"midpoints" : [ 1409.0, 996.25, 949.910278, 996.25 ],
					"source" : [ "obj-5", 39 ]
				}

			}
, 			{
				"patchline" : 				{
					"destination" : [ "obj-20", 38 ],
					"disabled" : 0,
					"hidden" : 0,
					"midpoints" : [ 1398.5, 996.25, 933.079285, 996.25 ],
					"source" : [ "obj-5", 38 ]
				}

			}
, 			{
				"patchline" : 				{
					"destination" : [ "obj-20", 37 ],
					"disabled" : 0,
					"hidden" : 0,
					"midpoints" : [ 1388.0, 996.25, 916.24823, 996.25 ],
					"source" : [ "obj-5", 37 ]
				}

			}
, 			{
				"patchline" : 				{
					"destination" : [ "obj-20", 36 ],
					"disabled" : 0,
					"hidden" : 0,
					"midpoints" : [ 1377.5, 996.25, 899.417236, 996.25 ],
					"source" : [ "obj-5", 36 ]
				}

			}
, 			{
				"patchline" : 				{
					"destination" : [ "obj-20", 35 ],
					"disabled" : 0,
					"hidden" : 0,
					"midpoints" : [ 1367.0, 996.25, 882.586182, 996.25 ],
					"source" : [ "obj-5", 35 ]
				}

			}
, 			{
				"patchline" : 				{
					"destination" : [ "obj-20", 34 ],
					"disabled" : 0,
					"hidden" : 0,
					"midpoints" : [ 1356.5, 996.25, 865.755127, 996.25 ],
					"source" : [ "obj-5", 34 ]
				}

			}
, 			{
				"patchline" : 				{
					"destination" : [ "obj-20", 33 ],
					"disabled" : 0,
					"hidden" : 0,
					"midpoints" : [ 1346.0, 996.25, 848.924133, 996.25 ],
					"source" : [ "obj-5", 33 ]
				}

			}
, 			{
				"patchline" : 				{
					"destination" : [ "obj-20", 32 ],
					"disabled" : 0,
					"hidden" : 0,
					"midpoints" : [ 1335.5, 996.25, 832.093079, 996.25 ],
					"source" : [ "obj-5", 32 ]
				}

			}
, 			{
				"patchline" : 				{
					"destination" : [ "obj-20", 31 ],
					"disabled" : 0,
					"hidden" : 0,
					"midpoints" : [ 1325.0, 996.25, 815.262024, 996.25 ],
					"source" : [ "obj-5", 31 ]
				}

			}
, 			{
				"patchline" : 				{
					"destination" : [ "obj-20", 30 ],
					"disabled" : 0,
					"hidden" : 0,
					"midpoints" : [ 1314.5, 996.25, 798.43103, 996.25 ],
					"source" : [ "obj-5", 30 ]
				}

			}
, 			{
				"patchline" : 				{
					"destination" : [ "obj-20", 29 ],
					"disabled" : 0,
					"hidden" : 0,
					"midpoints" : [ 1304.0, 996.25, 781.599976, 996.25 ],
					"source" : [ "obj-5", 29 ]
				}

			}
, 			{
				"patchline" : 				{
					"destination" : [ "obj-20", 28 ],
					"disabled" : 0,
					"hidden" : 0,
					"midpoints" : [ 1293.5, 996.25, 764.768921, 996.25 ],
					"source" : [ "obj-5", 28 ]
				}

			}
, 			{
				"patchline" : 				{
					"destination" : [ "obj-20", 27 ],
					"disabled" : 0,
					"hidden" : 0,
					"midpoints" : [ 1283.0, 996.25, 747.937927, 996.25 ],
					"source" : [ "obj-5", 27 ]
				}

			}
, 			{
				"patchline" : 				{
					"destination" : [ "obj-20", 26 ],
					"disabled" : 0,
					"hidden" : 0,
					"midpoints" : [ 1272.5, 996.25, 731.106873, 996.25 ],
					"source" : [ "obj-5", 26 ]
				}

			}
, 			{
				"patchline" : 				{
					"destination" : [ "obj-20", 25 ],
					"disabled" : 0,
					"hidden" : 0,
					"midpoints" : [ 1262.0, 996.25, 714.275879, 996.25 ],
					"source" : [ "obj-5", 25 ]
				}

			}
, 			{
				"patchline" : 				{
					"destination" : [ "obj-20", 24 ],
					"disabled" : 0,
					"hidden" : 0,
					"midpoints" : [ 1251.5, 996.25, 697.444824, 996.25 ],
					"source" : [ "obj-5", 24 ]
				}

			}
, 			{
				"patchline" : 				{
					"destination" : [ "obj-20", 23 ],
					"disabled" : 0,
					"hidden" : 0,
					"midpoints" : [ 1241.0, 996.25, 680.61377, 996.25 ],
					"source" : [ "obj-5", 23 ]
				}

			}
, 			{
				"patchline" : 				{
					"destination" : [ "obj-20", 22 ],
					"disabled" : 0,
					"hidden" : 0,
					"midpoints" : [ 1230.5, 996.25, 663.782776, 996.25 ],
					"source" : [ "obj-5", 22 ]
				}

			}
, 			{
				"patchline" : 				{
					"destination" : [ "obj-20", 21 ],
					"disabled" : 0,
					"hidden" : 0,
					"midpoints" : [ 1220.0, 996.25, 646.951721, 996.25 ],
					"source" : [ "obj-5", 21 ]
				}

			}
, 			{
				"patchline" : 				{
					"destination" : [ "obj-20", 20 ],
					"disabled" : 0,
					"hidden" : 0,
					"midpoints" : [ 1209.5, 996.25, 630.120667, 996.25 ],
					"source" : [ "obj-5", 20 ]
				}

			}
, 			{
				"patchline" : 				{
					"destination" : [ "obj-20", 19 ],
					"disabled" : 0,
					"hidden" : 0,
					"midpoints" : [ 1199.0, 996.25, 613.289673, 996.25 ],
					"source" : [ "obj-5", 19 ]
				}

			}
, 			{
				"patchline" : 				{
					"destination" : [ "obj-20", 18 ],
					"disabled" : 0,
					"hidden" : 0,
					"midpoints" : [ 1188.5, 996.25, 596.458618, 996.25 ],
					"source" : [ "obj-5", 18 ]
				}

			}
, 			{
				"patchline" : 				{
					"destination" : [ "obj-20", 17 ],
					"disabled" : 0,
					"hidden" : 0,
					"midpoints" : [ 1178.0, 996.25, 579.627563, 996.25 ],
					"source" : [ "obj-5", 17 ]
				}

			}
, 			{
				"patchline" : 				{
					"destination" : [ "obj-20", 16 ],
					"disabled" : 0,
					"hidden" : 0,
					"midpoints" : [ 1167.5, 996.25, 562.79657, 996.25 ],
					"source" : [ "obj-5", 16 ]
				}

			}
, 			{
				"patchline" : 				{
					"destination" : [ "obj-20", 15 ],
					"disabled" : 0,
					"hidden" : 0,
					"midpoints" : [ 1157.0, 996.25, 545.965515, 996.25 ],
					"source" : [ "obj-5", 15 ]
				}

			}
, 			{
				"patchline" : 				{
					"destination" : [ "obj-20", 14 ],
					"disabled" : 0,
					"hidden" : 0,
					"midpoints" : [ 1146.5, 996.25, 529.13446, 996.25 ],
					"source" : [ "obj-5", 14 ]
				}

			}
, 			{
				"patchline" : 				{
					"destination" : [ "obj-20", 13 ],
					"disabled" : 0,
					"hidden" : 0,
					"midpoints" : [ 1136.0, 996.25, 512.303467, 996.25 ],
					"source" : [ "obj-5", 13 ]
				}

			}
, 			{
				"patchline" : 				{
					"destination" : [ "obj-20", 12 ],
					"disabled" : 0,
					"hidden" : 0,
					"midpoints" : [ 1125.5, 996.25, 495.472412, 996.25 ],
					"source" : [ "obj-5", 12 ]
				}

			}
, 			{
				"patchline" : 				{
					"destination" : [ "obj-20", 11 ],
					"disabled" : 0,
					"hidden" : 0,
					"midpoints" : [ 1115.0, 996.25, 478.641388, 996.25 ],
					"source" : [ "obj-5", 11 ]
				}

			}
, 			{
				"patchline" : 				{
					"destination" : [ "obj-20", 10 ],
					"disabled" : 0,
					"hidden" : 0,
					"midpoints" : [ 1104.5, 996.25, 461.810364, 996.25 ],
					"source" : [ "obj-5", 10 ]
				}

			}
, 			{
				"patchline" : 				{
					"destination" : [ "obj-20", 9 ],
					"disabled" : 0,
					"hidden" : 0,
					"midpoints" : [ 1094.0, 996.25, 444.97934, 996.25 ],
					"source" : [ "obj-5", 9 ]
				}

			}
, 			{
				"patchline" : 				{
					"destination" : [ "obj-20", 8 ],
					"disabled" : 0,
					"hidden" : 0,
					"midpoints" : [ 1083.5, 996.25, 428.148285, 996.25 ],
					"source" : [ "obj-5", 8 ]
				}

			}
, 			{
				"patchline" : 				{
					"destination" : [ "obj-20", 7 ],
					"disabled" : 0,
					"hidden" : 0,
					"midpoints" : [ 1073.0, 996.25, 411.317261, 996.25 ],
					"source" : [ "obj-5", 7 ]
				}

			}
, 			{
				"patchline" : 				{
					"destination" : [ "obj-20", 6 ],
					"disabled" : 0,
					"hidden" : 0,
					"midpoints" : [ 1062.5, 996.25, 394.486237, 996.25 ],
					"source" : [ "obj-5", 6 ]
				}

			}
, 			{
				"patchline" : 				{
					"destination" : [ "obj-20", 5 ],
					"disabled" : 0,
					"hidden" : 0,
					"midpoints" : [ 1052.0, 996.25, 377.655182, 996.25 ],
					"source" : [ "obj-5", 5 ]
				}

			}
, 			{
				"patchline" : 				{
					"destination" : [ "obj-20", 4 ],
					"disabled" : 0,
					"hidden" : 0,
					"midpoints" : [ 1041.5, 996.25, 360.824158, 996.25 ],
					"source" : [ "obj-5", 4 ]
				}

			}
, 			{
				"patchline" : 				{
					"destination" : [ "obj-20", 3 ],
					"disabled" : 0,
					"hidden" : 0,
					"midpoints" : [ 1031.0, 996.25, 343.993134, 996.25 ],
					"source" : [ "obj-5", 3 ]
				}

			}
, 			{
				"patchline" : 				{
					"destination" : [ "obj-20", 2 ],
					"disabled" : 0,
					"hidden" : 0,
					"midpoints" : [ 1020.5, 996.25, 327.162109, 996.25 ],
					"source" : [ "obj-5", 2 ]
				}

			}
, 			{
				"patchline" : 				{
					"destination" : [ "obj-20", 1 ],
					"disabled" : 0,
					"hidden" : 0,
					"midpoints" : [ 1010.0, 996.25, 310.331055, 996.25 ],
					"source" : [ "obj-5", 1 ]
				}

			}
, 			{
				"patchline" : 				{
					"destination" : [ "obj-20", 0 ],
					"disabled" : 0,
					"hidden" : 0,
					"midpoints" : [ 999.5, 996.25, 293.500031, 996.25 ],
					"source" : [ "obj-5", 0 ]
				}

			}
, 			{
				"patchline" : 				{
					"destination" : [ "obj-159", 0 ],
					"disabled" : 0,
					"hidden" : 0,
					"source" : [ "obj-51", 0 ]
				}

			}
, 			{
				"patchline" : 				{
					"destination" : [ "obj-97", 0 ],
					"disabled" : 0,
					"hidden" : 0,
					"source" : [ "obj-53", 0 ]
				}

			}
, 			{
				"patchline" : 				{
					"destination" : [ "obj-51", 0 ],
					"disabled" : 0,
					"hidden" : 0,
					"source" : [ "obj-54", 0 ]
				}

			}
, 			{
				"patchline" : 				{
					"destination" : [ "obj-152", 0 ],
					"disabled" : 0,
					"hidden" : 0,
					"source" : [ "obj-57", 0 ]
				}

			}
, 			{
				"patchline" : 				{
					"destination" : [ "obj-57", 0 ],
					"disabled" : 0,
					"hidden" : 0,
					"source" : [ "obj-58", 0 ]
				}

			}
, 			{
				"patchline" : 				{
					"destination" : [ "obj-58", 0 ],
					"disabled" : 0,
					"hidden" : 0,
					"source" : [ "obj-59", 0 ]
				}

			}
, 			{
				"patchline" : 				{
					"destination" : [ "obj-63", 0 ],
					"disabled" : 0,
					"hidden" : 0,
					"source" : [ "obj-60", 0 ]
				}

			}
, 			{
				"patchline" : 				{
					"destination" : [ "obj-60", 0 ],
					"disabled" : 0,
					"hidden" : 0,
					"source" : [ "obj-61", 0 ]
				}

			}
, 			{
				"patchline" : 				{
					"destination" : [ "obj-61", 0 ],
					"disabled" : 0,
					"hidden" : 0,
					"source" : [ "obj-62", 0 ]
				}

			}
, 			{
				"patchline" : 				{
					"destination" : [ "obj-159", 0 ],
					"disabled" : 0,
					"hidden" : 0,
					"source" : [ "obj-63", 0 ]
				}

			}
, 			{
				"patchline" : 				{
					"destination" : [ "obj-68", 0 ],
					"disabled" : 0,
					"hidden" : 0,
					"source" : [ "obj-67", 0 ]
				}

			}
, 			{
				"patchline" : 				{
					"destination" : [ "obj-159", 0 ],
					"disabled" : 0,
					"hidden" : 0,
					"source" : [ "obj-68", 0 ]
				}

			}
, 			{
				"patchline" : 				{
					"destination" : [ "obj-70", 0 ],
					"disabled" : 0,
					"hidden" : 0,
					"source" : [ "obj-69", 0 ]
				}

			}
, 			{
				"patchline" : 				{
					"destination" : [ "obj-159", 0 ],
					"disabled" : 0,
					"hidden" : 0,
					"source" : [ "obj-70", 0 ]
				}

			}
, 			{
				"patchline" : 				{
					"destination" : [ "obj-160", 0 ],
					"disabled" : 0,
					"hidden" : 0,
					"source" : [ "obj-8", 0 ]
				}

			}
, 			{
				"patchline" : 				{
					"destination" : [ "obj-95", 0 ],
					"disabled" : 0,
					"hidden" : 0,
					"midpoints" : [ 1084.333374, 525.0, 999.5, 525.0 ],
					"source" : [ "obj-8", 1 ]
				}

			}
, 			{
				"patchline" : 				{
					"destination" : [ "obj-95", 0 ],
					"disabled" : 0,
					"hidden" : 0,
					"midpoints" : [ 999.5, 525.0, 999.5, 525.0 ],
					"source" : [ "obj-8", 0 ]
				}

			}
, 			{
				"patchline" : 				{
					"destination" : [ "obj-71", 0 ],
					"disabled" : 0,
					"hidden" : 0,
					"source" : [ "obj-85", 0 ]
				}

			}
, 			{
				"patchline" : 				{
					"destination" : [ "obj-16", 0 ],
					"disabled" : 0,
					"hidden" : 0,
					"source" : [ "obj-86", 0 ]
				}

			}
, 			{
				"patchline" : 				{
					"destination" : [ "obj-86", 0 ],
					"disabled" : 0,
					"hidden" : 0,
					"source" : [ "obj-87", 0 ]
				}

			}
, 			{
				"patchline" : 				{
					"destination" : [ "obj-87", 0 ],
					"disabled" : 0,
					"hidden" : 0,
					"source" : [ "obj-88", 0 ]
				}

			}
, 			{
				"patchline" : 				{
					"destination" : [ "obj-8", 0 ],
					"disabled" : 0,
					"hidden" : 0,
					"source" : [ "obj-89", 0 ]
				}

			}
, 			{
				"patchline" : 				{
					"destination" : [ "obj-157", 0 ],
					"disabled" : 0,
					"hidden" : 0,
					"source" : [ "obj-9", 0 ]
				}

			}
, 			{
				"patchline" : 				{
					"destination" : [ "obj-158", 0 ],
					"disabled" : 0,
					"hidden" : 0,
					"source" : [ "obj-9", 1 ]
				}

			}
, 			{
				"patchline" : 				{
					"destination" : [ "obj-33", 0 ],
					"disabled" : 0,
					"hidden" : 0,
					"source" : [ "obj-9", 2 ]
				}

			}
, 			{
				"patchline" : 				{
					"destination" : [ "obj-37", 0 ],
					"disabled" : 0,
					"hidden" : 0,
					"source" : [ "obj-90", 0 ]
				}

			}
, 			{
				"patchline" : 				{
					"destination" : [ "obj-90", 0 ],
					"disabled" : 0,
					"hidden" : 0,
					"source" : [ "obj-91", 0 ]
				}

			}
, 			{
				"patchline" : 				{
					"destination" : [ "obj-89", 0 ],
					"disabled" : 0,
					"hidden" : 0,
					"source" : [ "obj-92", 0 ]
				}

			}
, 			{
				"patchline" : 				{
					"destination" : [ "obj-91", 0 ],
					"disabled" : 0,
					"hidden" : 0,
					"source" : [ "obj-93", 0 ]
				}

			}
, 			{
				"patchline" : 				{
					"destination" : [ "obj-21", 0 ],
					"disabled" : 0,
					"hidden" : 0,
					"source" : [ "obj-94", 0 ]
				}

			}
, 			{
				"patchline" : 				{
					"destination" : [ "obj-5", 0 ],
					"disabled" : 0,
					"hidden" : 0,
					"source" : [ "obj-95", 0 ]
				}

			}
, 			{
				"patchline" : 				{
					"destination" : [ "obj-3", 0 ],
					"disabled" : 0,
					"hidden" : 0,
					"source" : [ "obj-96", 0 ]
				}

			}
, 			{
				"patchline" : 				{
					"destination" : [ "obj-159", 0 ],
					"disabled" : 0,
					"hidden" : 0,
					"source" : [ "obj-97", 0 ]
				}

			}
, 			{
				"patchline" : 				{
					"destination" : [ "obj-157", 3 ],
					"disabled" : 0,
					"hidden" : 0,
					"source" : [ "obj-99", 0 ]
				}

			}
, 			{
				"patchline" : 				{
					"destination" : [ "obj-158", 3 ],
					"disabled" : 0,
					"hidden" : 0,
					"source" : [ "obj-99", 0 ]
				}

			}
, 			{
				"patchline" : 				{
					"destination" : [ "obj-33", 3 ],
					"disabled" : 0,
					"hidden" : 0,
					"source" : [ "obj-99", 0 ]
				}

			}
 ],
		"parameters" : 		{
			"obj-9::obj-6.3::obj-9::obj-26::obj-59" : [ "live.numbox[9]", "live.numbox[1]", 0 ],
			"obj-59::obj-88" : [ "Time Mode[1]", "Time Mode", 1 ],
			"obj-93::obj-74" : [ "SyncRate[4]", "Rate", 0 ],
			"obj-9::obj-6.2::obj-9::obj-23" : [ "live.toggle[3]", "live.toggle", 0 ],
			"obj-48::obj-88" : [ "Time Mode", "Time Mode", 1 ],
			"obj-9::obj-6.3::obj-9::obj-2" : [ "live.gain~[2]", " ", 0 ],
			"obj-9::obj-6.2::obj-9::obj-46::obj-6" : [ "live.text[5]", "live.text[1]", 0 ],
			"obj-9::obj-6.1::obj-9::obj-26::obj-58" : [ "live.toggle[1]", "live.toggle[1]", 0 ],
			"obj-88::obj-94" : [ "Re-Trigger[3]", "Re-Trigger", 0 ],
			"obj-9::obj-6.3::obj-9::obj-46::obj-6" : [ "live.text[7]", "live.text[1]", 0 ],
			"obj-59::obj-74" : [ "SyncRate[1]", "Rate", 0 ],
			"obj-93::obj-75" : [ "Shape[4]", "Shape", 0 ],
			"obj-9::obj-6.2::obj-9::obj-26::obj-59" : [ "live.numbox[7]", "live.numbox[1]", 0 ],
			"obj-9::obj-6.2::obj-9::obj-43::obj-8" : [ "live.dial[1]", "freq", 0 ],
			"obj-62::obj-81" : [ "Phase-Inversion[2]", "Phase-Inversion", 1 ],
			"obj-9::obj-6.3::obj-9::obj-26::obj-56" : [ "live.button[5]", "live.button[1]", 0 ],
			"obj-9::obj-6.3::obj-9::obj-26::obj-58" : [ "live.toggle[4]", "live.toggle[1]", 0 ],
			"obj-93::obj-94" : [ "Re-Trigger[4]", "Re-Trigger", 0 ],
			"obj-48::obj-70" : [ "Amt", "CV Amt", 0 ],
			"obj-1::obj-50" : [ "live.numbox[6]", "live.numbox", 0 ],
			"obj-47" : [ "live.menu[7]", "live.menu", 0 ],
			"obj-9::obj-6.1::obj-9::obj-1" : [ "live.menu", "live.menu", 0 ],
			"obj-9::obj-6.2::obj-9::obj-26::obj-58" : [ "live.toggle[2]", "live.toggle[1]", 0 ],
			"obj-88::obj-89" : [ "FreqRate[3]", "Rate", 0 ],
			"obj-93::obj-81" : [ "Phase-Inversion[4]", "Phase-Inversion", 1 ],
			"obj-1::obj-21" : [ "live.numbox[4]", "live.numbox", 0 ],
			"obj-1::obj-35" : [ "live.numbox[5]", "live.numbox", 0 ],
			"obj-1::obj-55" : [ "live.text[3]", "live.text", 0 ],
			"obj-9::obj-6.2::obj-9::obj-2" : [ "live.gain~[1]", " ", 0 ],
			"obj-59::obj-12" : [ "Mute[1]", "Mute", 0 ],
			"obj-62::obj-94" : [ "Re-Trigger[2]", "Re-Trigger", 0 ],
			"obj-9::obj-6.1::obj-9::obj-2" : [ "live.gain~", " ", 0 ],
			"obj-9::obj-6.2::obj-9::obj-12::obj-4" : [ "live.numbox[8]", "live.numbox", 0 ],
			"obj-59::obj-81" : [ "Phase-Inversion[1]", "Phase-Inversion", 1 ],
			"obj-9::obj-6.3::obj-9::obj-182" : [ "live.text[8]", "live.text[1]", 0 ],
			"obj-88::obj-75" : [ "Shape[3]", "Shape", 0 ],
			"obj-9::obj-6.2::obj-9::obj-26::obj-56" : [ "live.button[3]", "live.button[1]", 0 ],
			"obj-48::obj-75" : [ "Shape", "Shape", 0 ],
			"obj-88::obj-144" : [ "Phase[3]", "Phase", 0 ],
			"obj-62::obj-89" : [ "FreqRate[2]", "Rate", 0 ],
			"obj-9::obj-6.1::obj-9::obj-43::obj-8" : [ "live.dial", "freq", 0 ],
			"obj-85" : [ "live.dial[3]", "live.dial[3]", 0 ],
			"obj-88::obj-70" : [ "Amt[3]", "CV Amt", 0 ],
			"obj-9::obj-6.3::obj-9::obj-1" : [ "live.menu[2]", "live.menu", 0 ],
			"obj-48::obj-74" : [ "SyncRate", "Rate", 0 ],
			"obj-48::obj-144" : [ "Phase", "Phase", 0 ],
			"obj-59::obj-94" : [ "Re-Trigger[1]", "Re-Trigger", 0 ],
			"obj-93::obj-12" : [ "Mute[8]", "Mute", 0 ],
			"obj-9::obj-6.1::obj-9::obj-46::obj-6" : [ "live.text[4]", "live.text[1]", 0 ],
			"obj-62::obj-75" : [ "Shape[2]", "Shape", 0 ],
			"obj-93::obj-70" : [ "Amt[4]", "CV Amt", 0 ],
			"obj-28" : [ "amxd~[1]", "amxd~[1]", 0 ],
			"obj-9::obj-6.1::obj-9::obj-26::obj-56" : [ "live.button[2]", "live.button[1]", 0 ],
			"obj-88::obj-88" : [ "Time Mode[3]", "Time Mode", 1 ],
			"obj-62::obj-144" : [ "Phase[2]", "Phase", 0 ],
			"obj-9::obj-6.1::obj-9::obj-12::obj-4" : [ "live.numbox", "live.numbox", 0 ],
			"obj-59::obj-89" : [ "FreqRate[1]", "Rate", 0 ],
			"obj-9::obj-6.1::obj-9::obj-26::obj-59" : [ "live.numbox[1]", "live.numbox[1]", 0 ],
			"obj-9::obj-6.1::obj-9::obj-182" : [ "live.text[1]", "live.text[1]", 0 ],
			"obj-93::obj-88" : [ "Time Mode[4]", "Time Mode", 1 ],
			"obj-9::obj-6.1::obj-9::obj-23" : [ "live.toggle", "live.toggle", 0 ],
			"obj-62::obj-70" : [ "Amt[2]", "CV Amt", 0 ],
			"obj-93::obj-144" : [ "Phase[4]", "Phase", 0 ],
			"obj-93::obj-89" : [ "FreqRate[4]", "Rate", 0 ],
			"obj-48::obj-89" : [ "FreqRate", "Rate", 0 ],
			"obj-9::obj-6.2::obj-9::obj-1" : [ "live.menu[1]", "live.menu", 0 ],
			"obj-62::obj-12" : [ "Mute[6]", "Mute", 0 ],
			"obj-88::obj-74" : [ "SyncRate[3]", "Rate", 0 ],
			"obj-9::obj-6.1::obj-9::obj-5::obj-12" : [ "live.button", "live.button", 0 ],
			"obj-9::obj-6.2::obj-9::obj-5::obj-12" : [ "live.button[4]", "live.button", 0 ],
			"obj-48::obj-94" : [ "Re-Trigger", "Re-Trigger", 0 ],
			"obj-88::obj-12" : [ "Mute[7]", "Mute", 0 ],
			"obj-59::obj-75" : [ "Shape[1]", "Shape", 0 ],
			"obj-48::obj-12" : [ "Mute", "Mute", 0 ],
			"obj-62::obj-88" : [ "Time Mode[2]", "Time Mode", 1 ],
			"obj-9::obj-6.3::obj-9::obj-23" : [ "live.toggle[5]", "live.toggle", 0 ],
			"obj-59::obj-144" : [ "Phase[1]", "Phase", 0 ],
			"obj-9::obj-6.1::obj-9::obj-46::obj-36" : [ "select folder[1]", "select folder", 0 ],
			"obj-9::obj-6.2::obj-9::obj-182" : [ "live.text[6]", "live.text[1]", 0 ],
			"obj-59::obj-70" : [ "Amt[1]", "CV Amt", 0 ],
			"obj-1::obj-606" : [ "live.text[2]", "live.text", 0 ],
			"obj-48::obj-81" : [ "Phase-Inversion", "Phase-Inversion", 1 ],
			"obj-1::obj-607" : [ "live.button[1]", "live.button", 0 ],
			"obj-62::obj-74" : [ "SyncRate[2]", "Rate", 0 ],
			"obj-9::obj-6.3::obj-9::obj-12::obj-4" : [ "live.numbox[10]", "live.numbox", 0 ],
			"obj-9::obj-6.3::obj-9::obj-46::obj-36" : [ "select folder[3]", "select folder", 0 ],
			"obj-9::obj-6.3::obj-9::obj-43::obj-8" : [ "live.dial[2]", "freq", 0 ],
			"obj-88::obj-81" : [ "Phase-Inversion[3]", "Phase-Inversion", 1 ],
			"obj-9::obj-6.2::obj-9::obj-46::obj-36" : [ "select folder[2]", "select folder", 0 ],
			"obj-9::obj-6.3::obj-9::obj-5::obj-12" : [ "live.button[6]", "live.button", 0 ]
		}
,
		"dependency_cache" : [ 			{
				"name" : "spat.monitor.maxpat",
				"bootpath" : "~/Documents/Max 7/Packages/ircam-spat/patchers",
				"type" : "JSON",
				"implicit" : 1
			}
, 			{
				"name" : "thru.maxpat",
				"bootpath" : "C74:/patchers/m4l/Pluggo for Live resources/patches",
				"type" : "JSON",
				"implicit" : 1
			}
, 			{
				"name" : "spat.NNDistFilter~.maxpat",
				"bootpath" : "~/Desktop/WaveAudio_x",
				"type" : "JSON",
				"implicit" : 1
			}
, 			{
				"name" : "spat.source~.control.maxpat",
				"bootpath" : "~/Documents/Max 7/Packages/ircam-spat/patchers",
				"type" : "JSON",
				"implicit" : 1
			}
, 			{
				"name" : "Granulator.amxd.maxsnap",
				"bootpath" : "~/Documents/Max 7/Snapshots",
				"type" : "mx@s",
				"implicit" : 1
			}
, 			{
				"name" : "Granulator.amxd[1].maxsnap",
				"bootpath" : "~/Documents/Max 7/Snapshots",
				"type" : "mx@s",
				"implicit" : 1
			}
, 			{
				"name" : "Granulator.amxd",
				"type" : "JSON",
				"implicit" : 1
			}
, 			{
				"name" : "ml.granulator.zoom120518.js",
				"type" : "TEXT",
				"implicit" : 1
			}
, 			{
				"name" : "ml-gr-show.js",
				"type" : "TEXT",
				"implicit" : 1
			}
, 			{
				"name" : "minsecmil.js",
				"type" : "TEXT",
				"implicit" : 1
			}
, 			{
				"name" : "ml.granulator.param.bp120517.maxpat",
				"type" : "JSON",
				"implicit" : 1
			}
, 			{
				"name" : "ml.poly.granulator130120.maxpat",
				"type" : "JSON",
				"implicit" : 1
			}
, 			{
				"name" : "ml-gr-lfo.js",
				"type" : "TEXT",
				"implicit" : 1
			}
, 			{
				"name" : "spat.multiinputs~.maxpat",
				"bootpath" : "~/Documents/Max 7/Packages/ircam-spat/patchers",
				"type" : "JSON",
				"implicit" : 1
			}
, 			{
				"name" : "spat.input.poly~.maxpat",
				"bootpath" : "~/Documents/Max 7/Packages/ircam-spat/patchers",
				"type" : "JSON",
				"implicit" : 1
			}
, 			{
				"name" : "spat.input~.maxpat",
				"bootpath" : "~/Documents/Max 7/Packages/ircam-spat/patchers",
				"type" : "JSON",
				"implicit" : 1
			}
, 			{
				"name" : "bp.CV LFO.maxpat",
				"bootpath" : "C74:/packages/BEAP/clippings/BEAP/LFO",
				"type" : "JSON",
				"implicit" : 1
			}
, 			{
				"name" : "spat.pan~.mxo",
				"type" : "iLaX"
			}
, 			{
				"name" : "spat.meter~.mxo",
				"type" : "iLaX"
			}
, 			{
				"name" : "spat.viewer.mxo",
				"type" : "iLaX"
			}
, 			{
				"name" : "spat.eq~.mxo",
				"type" : "iLaX"
			}
, 			{
				"name" : "spat.eq~.control.mxo",
				"type" : "iLaX"
			}
, 			{
				"name" : "spat.cpu.mxo",
				"type" : "iLaX"
			}
, 			{
				"name" : "spat.hostinfos.mxo",
				"type" : "iLaX"
			}
, 			{
				"name" : "spat.distance.mxo",
				"type" : "iLaX"
			}
, 			{
				"name" : "spat.knn.mxo",
				"type" : "iLaX"
			}
, 			{
				"name" : "spat.source~.mxo",
				"type" : "iLaX"
			}
, 			{
				"name" : "spat.hlshelf~.control.mxo",
				"type" : "iLaX"
			}
 ],
		"autosave" : 0
	}

}
